<?xml version="1.0" encoding="UTF-8" standalone="no"?>
<!DOCTYPE svg PUBLIC "-//W3C//DTD SVG 1.1//EN"
 "http://www.w3.org/Graphics/SVG/1.1/DTD/svg11.dtd">
<!-- Generated by graphviz version 2.30.1 (20201013.1554)
 -->
<!-- Title: snakemake_dag Pages: 1 -->
<svg width="3298pt" height="1052pt"
 viewBox="0.00 0.00 3298.00 1052.00" xmlns="http://www.w3.org/2000/svg" xmlns:xlink="http://www.w3.org/1999/xlink">
<g id="graph0" class="graph" transform="scale(1 1) rotate(0) translate(4 1048)">
<title>snakemake_dag</title>
<polygon fill="white" stroke="white" points="-4,5 -4,-1048 3295,-1048 3295,5 -4,5"/>
<!-- 0 -->
<g id="node1" class="node"><title>0</title>
<path fill="none" stroke="#566bd8" stroke-width="2" d="M1857,-36C1857,-36 1827,-36 1827,-36 1821,-36 1815,-30 1815,-24 1815,-24 1815,-12 1815,-12 1815,-6 1821,-0 1827,-0 1827,-0 1857,-0 1857,-0 1863,-0 1869,-6 1869,-12 1869,-12 1869,-24 1869,-24 1869,-30 1863,-36 1857,-36"/>
<text text-anchor="middle" x="1842" y="-15.5" font-family="sans" font-size="10.00">all</text>
</g>
<!-- 1 -->
<g id="node2" class="node"><title>1</title>
<path fill="none" stroke="#bed856" stroke-width="2" d="M1978.25,-108C1978.25,-108 1909.75,-108 1909.75,-108 1903.75,-108 1897.75,-102 1897.75,-96 1897.75,-96 1897.75,-84 1897.75,-84 1897.75,-78 1903.75,-72 1909.75,-72 1909.75,-72 1978.25,-72 1978.25,-72 1984.25,-72 1990.25,-78 1990.25,-84 1990.25,-84 1990.25,-96 1990.25,-96 1990.25,-102 1984.25,-108 1978.25,-108"/>
<text text-anchor="middle" x="1944" y="-87.5" font-family="sans" font-size="10.00">vcftools_counts</text>
</g>
<!-- 1&#45;&gt;0 -->
<g id="edge1" class="edge"><title>1&#45;&gt;0</title>
<path fill="none" stroke="grey" stroke-width="2" d="M1919.05,-71.8761C1905.96,-62.8931 1889.74,-51.7625 1875.56,-42.0341"/>
<polygon fill="grey" stroke="grey" points="1877.27,-38.9624 1867.05,-36.1898 1873.31,-44.734 1877.27,-38.9624"/>
</g>
<!-- 2 -->
<g id="node3" class="node"><title>2</title>
<path fill="none" stroke="#bed856" stroke-width="2" d="M2412.25,-108C2412.25,-108 2343.75,-108 2343.75,-108 2337.75,-108 2331.75,-102 2331.75,-96 2331.75,-96 2331.75,-84 2331.75,-84 2331.75,-78 2337.75,-72 2343.75,-72 2343.75,-72 2412.25,-72 2412.25,-72 2418.25,-72 2424.25,-78 2424.25,-84 2424.25,-84 2424.25,-96 2424.25,-96 2424.25,-102 2418.25,-108 2412.25,-108"/>
<text text-anchor="middle" x="2378" y="-87.5" font-family="sans" font-size="10.00">vcftools_counts</text>
</g>
<!-- 2&#45;&gt;0 -->
<g id="edge2" class="edge"><title>2&#45;&gt;0</title>
<path fill="none" stroke="grey" stroke-width="2" d="M2331.61,-78.3724C2320.63,-76.0706 2308.93,-73.7923 2298,-72 2143.45,-46.6545 1957.48,-28.9911 1879.39,-22.1502"/>
<polygon fill="grey" stroke="grey" points="1879.37,-18.6351 1869.11,-21.2571 1878.77,-25.6089 1879.37,-18.6351"/>
</g>
<!-- 3 -->
<g id="node4" class="node"><title>3</title>
<path fill="none" stroke="#bed856" stroke-width="2" d="M2732.25,-108C2732.25,-108 2663.75,-108 2663.75,-108 2657.75,-108 2651.75,-102 2651.75,-96 2651.75,-96 2651.75,-84 2651.75,-84 2651.75,-78 2657.75,-72 2663.75,-72 2663.75,-72 2732.25,-72 2732.25,-72 2738.25,-72 2744.25,-78 2744.25,-84 2744.25,-84 2744.25,-96 2744.25,-96 2744.25,-102 2738.25,-108 2732.25,-108"/>
<text text-anchor="middle" x="2698" y="-87.5" font-family="sans" font-size="10.00">vcftools_counts</text>
</g>
<!-- 3&#45;&gt;0 -->
<g id="edge3" class="edge"><title>3&#45;&gt;0</title>
<path fill="none" stroke="grey" stroke-width="2" d="M2651.67,-85.2117C2499.53,-72.7697 2017.02,-33.3127 1879.13,-22.0366"/>
<polygon fill="grey" stroke="grey" points="1879.32,-18.5404 1869.07,-21.2136 1878.75,-25.5171 1879.32,-18.5404"/>
</g>
<!-- 4 -->
<g id="node5" class="node"><title>4</title>
<path fill="none" stroke="#bed856" stroke-width="2" d="M541.25,-108C541.25,-108 472.75,-108 472.75,-108 466.75,-108 460.75,-102 460.75,-96 460.75,-96 460.75,-84 460.75,-84 460.75,-78 466.75,-72 472.75,-72 472.75,-72 541.25,-72 541.25,-72 547.25,-72 553.25,-78 553.25,-84 553.25,-84 553.25,-96 553.25,-96 553.25,-102 547.25,-108 541.25,-108"/>
<text text-anchor="middle" x="507" y="-87.5" font-family="sans" font-size="10.00">vcftools_counts</text>
</g>
<!-- 4&#45;&gt;0 -->
<g id="edge4" class="edge"><title>4&#45;&gt;0</title>
<path fill="none" stroke="grey" stroke-width="2" d="M553.534,-84.9375C597.455,-81.202 665.165,-75.6983 724,-72 1147.85,-45.3573 1662.86,-25.5765 1804.45,-20.3599"/>
<polygon fill="grey" stroke="grey" points="1804.88,-23.8465 1814.74,-19.982 1804.62,-16.8512 1804.88,-23.8465"/>
</g>
<!-- 5 -->
<g id="node6" class="node"><title>5</title>
<path fill="none" stroke="#bed856" stroke-width="2" d="M814.25,-108C814.25,-108 745.75,-108 745.75,-108 739.75,-108 733.75,-102 733.75,-96 733.75,-96 733.75,-84 733.75,-84 733.75,-78 739.75,-72 745.75,-72 745.75,-72 814.25,-72 814.25,-72 820.25,-72 826.25,-78 826.25,-84 826.25,-84 826.25,-96 826.25,-96 826.25,-102 820.25,-108 814.25,-108"/>
<text text-anchor="middle" x="780" y="-87.5" font-family="sans" font-size="10.00">vcftools_counts</text>
</g>
<!-- 5&#45;&gt;0 -->
<g id="edge5" class="edge"><title>5&#45;&gt;0</title>
<path fill="none" stroke="grey" stroke-width="2" d="M826.448,-81.2215C847.61,-77.9282 873.015,-74.3234 896,-72 1248.24,-36.3943 1676.86,-23.1963 1804.46,-19.8955"/>
<polygon fill="grey" stroke="grey" points="1804.93,-23.3847 1814.84,-19.6318 1804.75,-16.3869 1804.93,-23.3847"/>
</g>
<!-- 6 -->
<g id="node7" class="node"><title>6</title>
<path fill="none" stroke="#bed856" stroke-width="2" d="M1480.25,-108C1480.25,-108 1411.75,-108 1411.75,-108 1405.75,-108 1399.75,-102 1399.75,-96 1399.75,-96 1399.75,-84 1399.75,-84 1399.75,-78 1405.75,-72 1411.75,-72 1411.75,-72 1480.25,-72 1480.25,-72 1486.25,-72 1492.25,-78 1492.25,-84 1492.25,-84 1492.25,-96 1492.25,-96 1492.25,-102 1486.25,-108 1480.25,-108"/>
<text text-anchor="middle" x="1446" y="-87.5" font-family="sans" font-size="10.00">vcftools_counts</text>
</g>
<!-- 6&#45;&gt;0 -->
<g id="edge6" class="edge"><title>6&#45;&gt;0</title>
<path fill="none" stroke="grey" stroke-width="2" d="M1492.59,-80.7643C1572.1,-66.7101 1732.39,-38.3747 1804.89,-25.5593"/>
<polygon fill="grey" stroke="grey" points="1805.69,-28.972 1814.93,-23.7847 1804.48,-22.0789 1805.69,-28.972"/>
</g>
<!-- 7 -->
<g id="node8" class="node"><title>7</title>
<path fill="none" stroke="#bed856" stroke-width="2" d="M1776.25,-108C1776.25,-108 1707.75,-108 1707.75,-108 1701.75,-108 1695.75,-102 1695.75,-96 1695.75,-96 1695.75,-84 1695.75,-84 1695.75,-78 1701.75,-72 1707.75,-72 1707.75,-72 1776.25,-72 1776.25,-72 1782.25,-72 1788.25,-78 1788.25,-84 1788.25,-84 1788.25,-96 1788.25,-96 1788.25,-102 1782.25,-108 1776.25,-108"/>
<text text-anchor="middle" x="1742" y="-87.5" font-family="sans" font-size="10.00">vcftools_counts</text>
</g>
<!-- 7&#45;&gt;0 -->
<g id="edge7" class="edge"><title>7&#45;&gt;0</title>
<path fill="none" stroke="grey" stroke-width="2" d="M1766.46,-71.8761C1779.3,-62.8931 1795.2,-51.7625 1809.09,-42.0341"/>
<polygon fill="grey" stroke="grey" points="1811.26,-44.7917 1817.44,-36.1898 1807.24,-39.0571 1811.26,-44.7917"/>
</g>
<!-- 8 -->
<g id="node9" class="node"><title>8</title>
<path fill="none" stroke="#61d856" stroke-width="2" d="M2372,-900C2372,-900 2342,-900 2342,-900 2336,-900 2330,-894 2330,-888 2330,-888 2330,-876 2330,-876 2330,-870 2336,-864 2342,-864 2342,-864 2372,-864 2372,-864 2378,-864 2384,-870 2384,-876 2384,-876 2384,-888 2384,-888 2384,-894 2378,-900 2372,-900"/>
<text text-anchor="middle" x="2357" y="-879.5" font-family="sans" font-size="10.00">multiqc</text>
</g>
<!-- 8&#45;&gt;0 -->
<g id="edge8" class="edge"><title>8&#45;&gt;0</title>
<path fill="none" stroke="grey" stroke-width="2" d="M2384.17,-879.807C2537.71,-872.714 3290,-833.159 3290,-739 3290,-739 3290,-739 3290,-161 3290,-14.8416 2106.39,-16.8967 1879.39,-18.6348"/>
<polygon fill="grey" stroke="grey" points="1879.29,-15.1355 1869.31,-18.7168 1879.34,-22.1353 1879.29,-15.1355"/>
</g>
<!-- 9 -->
<g id="node10" class="node"><title>9</title>
<path fill="none" stroke="#d88556" stroke-width="2" d="M2298,-180C2298,-180 2154,-180 2154,-180 2148,-180 2142,-174 2142,-168 2142,-168 2142,-156 2142,-156 2142,-150 2148,-144 2154,-144 2154,-144 2298,-144 2298,-144 2304,-144 2310,-150 2310,-156 2310,-156 2310,-168 2310,-168 2310,-174 2304,-180 2298,-180"/>
<text text-anchor="middle" x="2226" y="-159.5" font-family="sans" font-size="10.00">vcftools_check_genotype_calls</text>
</g>
<!-- 9&#45;&gt;0 -->
<g id="edge9" class="edge"><title>9&#45;&gt;0</title>
<path fill="none" stroke="grey" stroke-width="2" d="M2184.39,-143.992C2139.04,-125.617 2064.22,-95.7792 1999,-72 1958.15,-57.1064 1910.81,-41.3248 1878.88,-30.8953"/>
<polygon fill="grey" stroke="grey" points="1879.68,-27.4735 1869.09,-27.7051 1877.51,-34.1295 1879.68,-27.4735"/>
</g>
<!-- 10 -->
<g id="node11" class="node"><title>10</title>
<path fill="none" stroke="#d88556" stroke-width="2" d="M2277,-108C2277,-108 2133,-108 2133,-108 2127,-108 2121,-102 2121,-96 2121,-96 2121,-84 2121,-84 2121,-78 2127,-72 2133,-72 2133,-72 2277,-72 2277,-72 2283,-72 2289,-78 2289,-84 2289,-84 2289,-96 2289,-96 2289,-102 2283,-108 2277,-108"/>
<text text-anchor="middle" x="2205" y="-87.5" font-family="sans" font-size="10.00">vcftools_check_genotype_calls</text>
</g>
<!-- 10&#45;&gt;0 -->
<g id="edge10" class="edge"><title>10&#45;&gt;0</title>
<path fill="none" stroke="grey" stroke-width="2" d="M2120.81,-72.7646C2044.5,-58.0503 1935.62,-37.0537 1879.16,-26.1658"/>
<polygon fill="grey" stroke="grey" points="1879.73,-22.7111 1869.25,-24.2542 1878.4,-29.5845 1879.73,-22.7111"/>
</g>
<!-- 11 -->
<g id="node12" class="node"><title>11</title>
<path fill="none" stroke="#d88556" stroke-width="2" d="M3189,-180C3189,-180 3045,-180 3045,-180 3039,-180 3033,-174 3033,-168 3033,-168 3033,-156 3033,-156 3033,-150 3039,-144 3045,-144 3045,-144 3189,-144 3189,-144 3195,-144 3201,-150 3201,-156 3201,-156 3201,-168 3201,-168 3201,-174 3195,-180 3189,-180"/>
<text text-anchor="middle" x="3117" y="-159.5" font-family="sans" font-size="10.00">vcftools_check_genotype_calls</text>
</g>
<!-- 11&#45;&gt;0 -->
<g id="edge11" class="edge"><title>11&#45;&gt;0</title>
<path fill="none" stroke="grey" stroke-width="2" d="M3061.2,-143.996C2990.3,-123.174 2863.82,-88.6303 2753,-72 2416.56,-21.5109 2003.54,-18.4327 1879.14,-18.7519"/>
<polygon fill="grey" stroke="grey" points="1879,-15.2523 1869.01,-18.7874 1879.03,-22.2523 1879,-15.2523"/>
</g>
<!-- 12 -->
<g id="node13" class="node"><title>12</title>
<path fill="none" stroke="#d88556" stroke-width="2" d="M251,-108C251,-108 107,-108 107,-108 101,-108 95,-102 95,-96 95,-96 95,-84 95,-84 95,-78 101,-72 107,-72 107,-72 251,-72 251,-72 257,-72 263,-78 263,-84 263,-84 263,-96 263,-96 263,-102 257,-108 251,-108"/>
<text text-anchor="middle" x="179" y="-87.5" font-family="sans" font-size="10.00">vcftools_check_genotype_calls</text>
</g>
<!-- 12&#45;&gt;0 -->
<g id="edge12" class="edge"><title>12&#45;&gt;0</title>
<path fill="none" stroke="grey" stroke-width="2" d="M263.207,-83.2069C316.923,-79.6427 388.033,-75.1668 451,-72 987.768,-45.004 1641.67,-24.9145 1804.12,-20.1048"/>
<polygon fill="grey" stroke="grey" points="1804.64,-23.5911 1814.54,-19.7976 1804.44,-16.5941 1804.64,-23.5911"/>
</g>
<!-- 13 -->
<g id="node14" class="node"><title>13</title>
<path fill="none" stroke="#d88556" stroke-width="2" d="M945,-180C945,-180 801,-180 801,-180 795,-180 789,-174 789,-168 789,-168 789,-156 789,-156 789,-150 795,-144 801,-144 801,-144 945,-144 945,-144 951,-144 957,-150 957,-156 957,-156 957,-168 957,-168 957,-174 951,-180 945,-180"/>
<text text-anchor="middle" x="873" y="-159.5" font-family="sans" font-size="10.00">vcftools_check_genotype_calls</text>
</g>
<!-- 13&#45;&gt;0 -->
<g id="edge13" class="edge"><title>13&#45;&gt;0</title>
<path fill="none" stroke="grey" stroke-width="2" d="M885.671,-143.872C902.489,-122.662 934.363,-87.4484 971,-72 1048.61,-39.2747 1648.69,-23.4101 1804.92,-19.8085"/>
<polygon fill="grey" stroke="grey" points="1805.05,-23.3064 1814.97,-19.5796 1804.89,-16.3082 1805.05,-23.3064"/>
</g>
<!-- 14 -->
<g id="node15" class="node"><title>14</title>
<path fill="none" stroke="#d88556" stroke-width="2" d="M1107,-396C1107,-396 963,-396 963,-396 957,-396 951,-390 951,-384 951,-384 951,-372 951,-372 951,-366 957,-360 963,-360 963,-360 1107,-360 1107,-360 1113,-360 1119,-366 1119,-372 1119,-372 1119,-384 1119,-384 1119,-390 1113,-396 1107,-396"/>
<text text-anchor="middle" x="1035" y="-375.5" font-family="sans" font-size="10.00">vcftools_check_genotype_calls</text>
</g>
<!-- 14&#45;&gt;0 -->
<g id="edge14" class="edge"><title>14&#45;&gt;0</title>
<path fill="none" stroke="grey" stroke-width="2" d="M996.224,-359.783C981.819,-351.242 967.037,-339.402 959,-324 934.865,-277.745 964.435,-248.81 1005,-216 1147.04,-101.114 1212.43,-114.95 1390,-72 1540.91,-35.4986 1726.47,-23.806 1804.56,-20.3427"/>
<polygon fill="grey" stroke="grey" points="1805.01,-23.8269 1814.85,-19.9069 1804.72,-16.8332 1805.01,-23.8269"/>
</g>
<!-- 15 -->
<g id="node16" class="node"><title>15</title>
<path fill="none" stroke="#d88556" stroke-width="2" d="M1947,-396C1947,-396 1803,-396 1803,-396 1797,-396 1791,-390 1791,-384 1791,-384 1791,-372 1791,-372 1791,-366 1797,-360 1803,-360 1803,-360 1947,-360 1947,-360 1953,-360 1959,-366 1959,-372 1959,-372 1959,-384 1959,-384 1959,-390 1953,-396 1947,-396"/>
<text text-anchor="middle" x="1875" y="-375.5" font-family="sans" font-size="10.00">vcftools_check_genotype_calls</text>
</g>
<!-- 15&#45;&gt;0 -->
<g id="edge15" class="edge"><title>15&#45;&gt;0</title>
<path fill="none" stroke="grey" stroke-width="2" d="M1868.32,-359.811C1858.68,-333.402 1842,-281.064 1842,-235 1842,-235 1842,-235 1842,-161 1842,-120.996 1842,-74.6528 1842,-46.0798"/>
<polygon fill="grey" stroke="grey" points="1845.5,-46.0492 1842,-36.0493 1838.5,-46.0493 1845.5,-46.0492"/>
</g>
<!-- 16 -->
<g id="node17" class="node"><title>16</title>
<path fill="none" stroke="#d8b456" stroke-width="2" d="M2005.25,-180C2005.25,-180 1936.75,-180 1936.75,-180 1930.75,-180 1924.75,-174 1924.75,-168 1924.75,-168 1924.75,-156 1924.75,-156 1924.75,-150 1930.75,-144 1936.75,-144 1936.75,-144 2005.25,-144 2005.25,-144 2011.25,-144 2017.25,-150 2017.25,-156 2017.25,-156 2017.25,-168 2017.25,-168 2017.25,-174 2011.25,-180 2005.25,-180"/>
<text text-anchor="middle" x="1971" y="-159.5" font-family="sans" font-size="10.00">bcftools_concat</text>
</g>
<!-- 16&#45;&gt;1 -->
<g id="edge16" class="edge"><title>16&#45;&gt;1</title>
<path fill="none" stroke="grey" stroke-width="2" d="M1964.33,-143.697C1961.29,-135.813 1957.62,-126.304 1954.24,-117.546"/>
<polygon fill="grey" stroke="grey" points="1957.46,-116.175 1950.6,-108.104 1950.93,-118.694 1957.46,-116.175"/>
</g>
<!-- 17 -->
<g id="node18" class="node"><title>17</title>
<path fill="none" stroke="#d8b456" stroke-width="2" d="M2509.25,-180C2509.25,-180 2440.75,-180 2440.75,-180 2434.75,-180 2428.75,-174 2428.75,-168 2428.75,-168 2428.75,-156 2428.75,-156 2428.75,-150 2434.75,-144 2440.75,-144 2440.75,-144 2509.25,-144 2509.25,-144 2515.25,-144 2521.25,-150 2521.25,-156 2521.25,-156 2521.25,-168 2521.25,-168 2521.25,-174 2515.25,-180 2509.25,-180"/>
<text text-anchor="middle" x="2475" y="-159.5" font-family="sans" font-size="10.00">bcftools_concat</text>
</g>
<!-- 17&#45;&gt;2 -->
<g id="edge17" class="edge"><title>17&#45;&gt;2</title>
<path fill="none" stroke="grey" stroke-width="2" d="M2451.02,-143.697C2438.69,-134.796 2423.48,-123.823 2410.15,-114.199"/>
<polygon fill="grey" stroke="grey" points="2411.86,-111.118 2401.7,-108.104 2407.76,-116.794 2411.86,-111.118"/>
</g>
<!-- 18 -->
<g id="node19" class="node"><title>18</title>
<path fill="none" stroke="#d8b456" stroke-width="2" d="M2941.25,-180C2941.25,-180 2872.75,-180 2872.75,-180 2866.75,-180 2860.75,-174 2860.75,-168 2860.75,-168 2860.75,-156 2860.75,-156 2860.75,-150 2866.75,-144 2872.75,-144 2872.75,-144 2941.25,-144 2941.25,-144 2947.25,-144 2953.25,-150 2953.25,-156 2953.25,-156 2953.25,-168 2953.25,-168 2953.25,-174 2947.25,-180 2941.25,-180"/>
<text text-anchor="middle" x="2907" y="-159.5" font-family="sans" font-size="10.00">bcftools_concat</text>
</g>
<!-- 18&#45;&gt;3 -->
<g id="edge18" class="edge"><title>18&#45;&gt;3</title>
<path fill="none" stroke="grey" stroke-width="2" d="M2860.62,-145.465C2829.09,-134.907 2787.22,-120.884 2753.87,-109.711"/>
<polygon fill="grey" stroke="grey" points="2754.85,-106.349 2744.25,-106.492 2752.62,-112.987 2754.85,-106.349"/>
</g>
<!-- 19 -->
<g id="node20" class="node"><title>19</title>
<path fill="none" stroke="#d8b456" stroke-width="2" d="M379.25,-180C379.25,-180 310.75,-180 310.75,-180 304.75,-180 298.75,-174 298.75,-168 298.75,-168 298.75,-156 298.75,-156 298.75,-150 304.75,-144 310.75,-144 310.75,-144 379.25,-144 379.25,-144 385.25,-144 391.25,-150 391.25,-156 391.25,-156 391.25,-168 391.25,-168 391.25,-174 385.25,-180 379.25,-180"/>
<text text-anchor="middle" x="345" y="-159.5" font-family="sans" font-size="10.00">bcftools_concat</text>
</g>
<!-- 19&#45;&gt;4 -->
<g id="edge19" class="edge"><title>19&#45;&gt;4</title>
<path fill="none" stroke="grey" stroke-width="2" d="M384.63,-143.876C406.776,-134.307 434.563,-122.3 458.058,-112.148"/>
<polygon fill="grey" stroke="grey" points="459.708,-115.248 467.499,-108.068 456.931,-108.822 459.708,-115.248"/>
</g>
<!-- 20 -->
<g id="node21" class="node"><title>20</title>
<path fill="none" stroke="#d8b456" stroke-width="2" d="M758.25,-180C758.25,-180 689.75,-180 689.75,-180 683.75,-180 677.75,-174 677.75,-168 677.75,-168 677.75,-156 677.75,-156 677.75,-150 683.75,-144 689.75,-144 689.75,-144 758.25,-144 758.25,-144 764.25,-144 770.25,-150 770.25,-156 770.25,-156 770.25,-168 770.25,-168 770.25,-174 764.25,-180 758.25,-180"/>
<text text-anchor="middle" x="724" y="-159.5" font-family="sans" font-size="10.00">bcftools_concat</text>
</g>
<!-- 20&#45;&gt;5 -->
<g id="edge20" class="edge"><title>20&#45;&gt;5</title>
<path fill="none" stroke="grey" stroke-width="2" d="M737.843,-143.697C744.489,-135.389 752.578,-125.277 759.887,-116.141"/>
<polygon fill="grey" stroke="grey" points="762.803,-118.099 766.317,-108.104 757.336,-113.727 762.803,-118.099"/>
</g>
<!-- 21 -->
<g id="node22" class="node"><title>21</title>
<path fill="none" stroke="#d8b456" stroke-width="2" d="M1319.25,-180C1319.25,-180 1250.75,-180 1250.75,-180 1244.75,-180 1238.75,-174 1238.75,-168 1238.75,-168 1238.75,-156 1238.75,-156 1238.75,-150 1244.75,-144 1250.75,-144 1250.75,-144 1319.25,-144 1319.25,-144 1325.25,-144 1331.25,-150 1331.25,-156 1331.25,-156 1331.25,-168 1331.25,-168 1331.25,-174 1325.25,-180 1319.25,-180"/>
<text text-anchor="middle" x="1285" y="-159.5" font-family="sans" font-size="10.00">bcftools_concat</text>
</g>
<!-- 21&#45;&gt;6 -->
<g id="edge21" class="edge"><title>21&#45;&gt;6</title>
<path fill="none" stroke="grey" stroke-width="2" d="M1324.39,-143.876C1346.39,-134.307 1374.01,-122.3 1397.36,-112.148"/>
<polygon fill="grey" stroke="grey" points="1398.97,-115.265 1406.74,-108.068 1396.18,-108.846 1398.97,-115.265"/>
</g>
<!-- 22 -->
<g id="node23" class="node"><title>22</title>
<path fill="none" stroke="#d8b456" stroke-width="2" d="M1751.25,-180C1751.25,-180 1682.75,-180 1682.75,-180 1676.75,-180 1670.75,-174 1670.75,-168 1670.75,-168 1670.75,-156 1670.75,-156 1670.75,-150 1676.75,-144 1682.75,-144 1682.75,-144 1751.25,-144 1751.25,-144 1757.25,-144 1763.25,-150 1763.25,-156 1763.25,-156 1763.25,-168 1763.25,-168 1763.25,-174 1757.25,-180 1751.25,-180"/>
<text text-anchor="middle" x="1717" y="-159.5" font-family="sans" font-size="10.00">bcftools_concat</text>
</g>
<!-- 22&#45;&gt;7 -->
<g id="edge22" class="edge"><title>22&#45;&gt;7</title>
<path fill="none" stroke="grey" stroke-width="2" d="M1723.18,-143.697C1726,-135.813 1729.39,-126.304 1732.52,-117.546"/>
<polygon fill="grey" stroke="grey" points="1735.82,-118.699 1735.89,-108.104 1729.23,-116.345 1735.82,-118.699"/>
</g>
<!-- 23 -->
<g id="node24" class="node"><title>23</title>
<path fill="none" stroke="#d86e56" stroke-width="2" d="M2372,-972C2372,-972 2342,-972 2342,-972 2336,-972 2330,-966 2330,-960 2330,-960 2330,-948 2330,-948 2330,-942 2336,-936 2342,-936 2342,-936 2372,-936 2372,-936 2378,-936 2384,-942 2384,-948 2384,-948 2384,-960 2384,-960 2384,-966 2378,-972 2372,-972"/>
<text text-anchor="middle" x="2357" y="-951.5" font-family="sans" font-size="10.00">fastp</text>
</g>
<!-- 23&#45;&gt;8 -->
<g id="edge23" class="edge"><title>23&#45;&gt;8</title>
<path fill="none" stroke="grey" stroke-width="2" d="M2357,-935.697C2357,-927.983 2357,-918.712 2357,-910.112"/>
<polygon fill="grey" stroke="grey" points="2360.5,-910.104 2357,-900.104 2353.5,-910.104 2360.5,-910.104"/>
</g>
<!-- 87 -->
<g id="node88" class="node"><title>87</title>
<path fill="none" stroke="#56d863" stroke-width="2" d="M2291,-900C2291,-900 2247,-900 2247,-900 2241,-900 2235,-894 2235,-888 2235,-888 2235,-876 2235,-876 2235,-870 2241,-864 2247,-864 2247,-864 2291,-864 2291,-864 2297,-864 2303,-870 2303,-876 2303,-876 2303,-888 2303,-888 2303,-894 2297,-900 2291,-900"/>
<text text-anchor="middle" x="2269" y="-879.5" font-family="sans" font-size="10.00">bwa_mem</text>
</g>
<!-- 23&#45;&gt;87 -->
<g id="edge122" class="edge"><title>23&#45;&gt;87</title>
<path fill="none" stroke="grey" stroke-width="2" d="M2335.25,-935.697C2324.16,-926.881 2310.53,-916.032 2298.51,-906.474"/>
<polygon fill="grey" stroke="grey" points="2300.51,-903.59 2290.5,-900.104 2296.15,-909.069 2300.51,-903.59"/>
</g>
<!-- 24 -->
<g id="node25" class="node"><title>24</title>
<path fill="none" stroke="#d86e56" stroke-width="2" d="M2260,-972C2260,-972 2230,-972 2230,-972 2224,-972 2218,-966 2218,-960 2218,-960 2218,-948 2218,-948 2218,-942 2224,-936 2230,-936 2230,-936 2260,-936 2260,-936 2266,-936 2272,-942 2272,-948 2272,-948 2272,-960 2272,-960 2272,-966 2266,-972 2260,-972"/>
<text text-anchor="middle" x="2245" y="-951.5" font-family="sans" font-size="10.00">fastp</text>
</g>
<!-- 24&#45;&gt;8 -->
<g id="edge24" class="edge"><title>24&#45;&gt;8</title>
<path fill="none" stroke="grey" stroke-width="2" d="M2272.11,-936.055C2286.86,-926.837 2305.29,-915.319 2321.21,-905.371"/>
<polygon fill="grey" stroke="grey" points="2323.12,-908.3 2329.75,-900.032 2319.41,-902.364 2323.12,-908.3"/>
</g>
<!-- 88 -->
<g id="node89" class="node"><title>88</title>
<path fill="none" stroke="#56d863" stroke-width="2" d="M2187,-900C2187,-900 2143,-900 2143,-900 2137,-900 2131,-894 2131,-888 2131,-888 2131,-876 2131,-876 2131,-870 2137,-864 2143,-864 2143,-864 2187,-864 2187,-864 2193,-864 2199,-870 2199,-876 2199,-876 2199,-888 2199,-888 2199,-894 2193,-900 2187,-900"/>
<text text-anchor="middle" x="2165" y="-879.5" font-family="sans" font-size="10.00">bwa_mem</text>
</g>
<!-- 24&#45;&gt;88 -->
<g id="edge124" class="edge"><title>24&#45;&gt;88</title>
<path fill="none" stroke="grey" stroke-width="2" d="M2225.22,-935.697C2215.25,-926.965 2202.99,-916.24 2192.14,-906.75"/>
<polygon fill="grey" stroke="grey" points="2194.38,-904.055 2184.55,-900.104 2189.77,-909.323 2194.38,-904.055"/>
</g>
<!-- 25 -->
<g id="node26" class="node"><title>25</title>
<path fill="none" stroke="#d89c56" stroke-width="2" d="M2199.25,-468C2199.25,-468 2102.75,-468 2102.75,-468 2096.75,-468 2090.75,-462 2090.75,-456 2090.75,-456 2090.75,-444 2090.75,-444 2090.75,-438 2096.75,-432 2102.75,-432 2102.75,-432 2199.25,-432 2199.25,-432 2205.25,-432 2211.25,-438 2211.25,-444 2211.25,-444 2211.25,-456 2211.25,-456 2211.25,-462 2205.25,-468 2199.25,-468"/>
<text text-anchor="middle" x="2151" y="-447.5" font-family="sans" font-size="10.00">gatk_genotype_gvcfs</text>
</g>
<!-- 25&#45;&gt;9 -->
<g id="edge25" class="edge"><title>25&#45;&gt;9</title>
<path fill="none" stroke="grey" stroke-width="2" d="M2193.29,-431.864C2211.56,-423.037 2232.3,-410.957 2248,-396 2275.15,-370.132 2281.84,-360.1 2292,-324 2305.91,-274.56 2272.23,-219.778 2248.04,-188.555"/>
<polygon fill="grey" stroke="grey" points="2250.5,-186.021 2241.52,-180.398 2245.03,-190.393 2250.5,-186.021"/>
</g>
<!-- 71 -->
<g id="node72" class="node"><title>71</title>
<path fill="none" stroke="#56d87b" stroke-width="2" d="M2227,-396C2227,-396 2075,-396 2075,-396 2069,-396 2063,-390 2063,-384 2063,-384 2063,-372 2063,-372 2063,-366 2069,-360 2075,-360 2075,-360 2227,-360 2227,-360 2233,-360 2239,-366 2239,-372 2239,-372 2239,-384 2239,-384 2239,-390 2233,-396 2227,-396"/>
<text text-anchor="middle" x="2151" y="-375.5" font-family="sans" font-size="10.00">separate_variant_invariant_sites</text>
</g>
<!-- 25&#45;&gt;71 -->
<g id="edge107" class="edge"><title>25&#45;&gt;71</title>
<path fill="none" stroke="grey" stroke-width="2" d="M2151,-431.697C2151,-423.983 2151,-414.712 2151,-406.112"/>
<polygon fill="grey" stroke="grey" points="2154.5,-406.104 2151,-396.104 2147.5,-406.104 2154.5,-406.104"/>
</g>
<!-- 26 -->
<g id="node27" class="node"><title>26</title>
<path fill="none" stroke="#d89c56" stroke-width="2" d="M2398.25,-468C2398.25,-468 2301.75,-468 2301.75,-468 2295.75,-468 2289.75,-462 2289.75,-456 2289.75,-456 2289.75,-444 2289.75,-444 2289.75,-438 2295.75,-432 2301.75,-432 2301.75,-432 2398.25,-432 2398.25,-432 2404.25,-432 2410.25,-438 2410.25,-444 2410.25,-444 2410.25,-456 2410.25,-456 2410.25,-462 2404.25,-468 2398.25,-468"/>
<text text-anchor="middle" x="2350" y="-447.5" font-family="sans" font-size="10.00">gatk_genotype_gvcfs</text>
</g>
<!-- 26&#45;&gt;10 -->
<g id="edge26" class="edge"><title>26&#45;&gt;10</title>
<path fill="none" stroke="grey" stroke-width="2" d="M2350,-431.951C2350,-405.292 2350,-352.115 2350,-307 2350,-307 2350,-307 2350,-233 2350,-191.114 2347.1,-175.062 2319,-144 2306.65,-130.343 2290.05,-119.932 2273.35,-112.109"/>
<polygon fill="grey" stroke="grey" points="2274.65,-108.858 2264.09,-108.026 2271.83,-115.263 2274.65,-108.858"/>
</g>
<!-- 72 -->
<g id="node73" class="node"><title>72</title>
<path fill="none" stroke="#56d87b" stroke-width="2" d="M2551,-396C2551,-396 2399,-396 2399,-396 2393,-396 2387,-390 2387,-384 2387,-384 2387,-372 2387,-372 2387,-366 2393,-360 2399,-360 2399,-360 2551,-360 2551,-360 2557,-360 2563,-366 2563,-372 2563,-372 2563,-384 2563,-384 2563,-390 2557,-396 2551,-396"/>
<text text-anchor="middle" x="2475" y="-375.5" font-family="sans" font-size="10.00">separate_variant_invariant_sites</text>
</g>
<!-- 26&#45;&gt;72 -->
<g id="edge108" class="edge"><title>26&#45;&gt;72</title>
<path fill="none" stroke="grey" stroke-width="2" d="M2380.58,-431.876C2397.07,-422.639 2417.62,-411.131 2435.34,-401.212"/>
<polygon fill="grey" stroke="grey" points="2437.29,-404.13 2444.3,-396.19 2433.87,-398.022 2437.29,-404.13"/>
</g>
<!-- 27 -->
<g id="node28" class="node"><title>27</title>
<path fill="none" stroke="#d89c56" stroke-width="2" d="M3063.25,-468C3063.25,-468 2966.75,-468 2966.75,-468 2960.75,-468 2954.75,-462 2954.75,-456 2954.75,-456 2954.75,-444 2954.75,-444 2954.75,-438 2960.75,-432 2966.75,-432 2966.75,-432 3063.25,-432 3063.25,-432 3069.25,-432 3075.25,-438 3075.25,-444 3075.25,-444 3075.25,-456 3075.25,-456 3075.25,-462 3069.25,-468 3063.25,-468"/>
<text text-anchor="middle" x="3015" y="-447.5" font-family="sans" font-size="10.00">gatk_genotype_gvcfs</text>
</g>
<!-- 27&#45;&gt;11 -->
<g id="edge27" class="edge"><title>27&#45;&gt;11</title>
<path fill="none" stroke="grey" stroke-width="2" d="M3075.43,-433.097C3127.65,-415.776 3199.79,-382.405 3233,-324 3262.69,-271.778 3198.12,-215.999 3153.91,-185.739"/>
<polygon fill="grey" stroke="grey" points="3155.64,-182.682 3145.38,-180.035 3151.75,-188.502 3155.64,-182.682"/>
</g>
<!-- 73 -->
<g id="node74" class="node"><title>73</title>
<path fill="none" stroke="#56d87b" stroke-width="2" d="M3091,-396C3091,-396 2939,-396 2939,-396 2933,-396 2927,-390 2927,-384 2927,-384 2927,-372 2927,-372 2927,-366 2933,-360 2939,-360 2939,-360 3091,-360 3091,-360 3097,-360 3103,-366 3103,-372 3103,-372 3103,-384 3103,-384 3103,-390 3097,-396 3091,-396"/>
<text text-anchor="middle" x="3015" y="-375.5" font-family="sans" font-size="10.00">separate_variant_invariant_sites</text>
</g>
<!-- 27&#45;&gt;73 -->
<g id="edge109" class="edge"><title>27&#45;&gt;73</title>
<path fill="none" stroke="grey" stroke-width="2" d="M3015,-431.697C3015,-423.983 3015,-414.712 3015,-406.112"/>
<polygon fill="grey" stroke="grey" points="3018.5,-406.104 3015,-396.104 3011.5,-406.104 3018.5,-406.104"/>
</g>
<!-- 28 -->
<g id="node29" class="node"><title>28</title>
<path fill="none" stroke="#d89c56" stroke-width="2" d="M285.25,-468C285.25,-468 188.75,-468 188.75,-468 182.75,-468 176.75,-462 176.75,-456 176.75,-456 176.75,-444 176.75,-444 176.75,-438 182.75,-432 188.75,-432 188.75,-432 285.25,-432 285.25,-432 291.25,-432 297.25,-438 297.25,-444 297.25,-444 297.25,-456 297.25,-456 297.25,-462 291.25,-468 285.25,-468"/>
<text text-anchor="middle" x="237" y="-447.5" font-family="sans" font-size="10.00">gatk_genotype_gvcfs</text>
</g>
<!-- 28&#45;&gt;12 -->
<g id="edge28" class="edge"><title>28&#45;&gt;12</title>
<path fill="none" stroke="grey" stroke-width="2" d="M176.582,-439.688C106.364,-425.035 0,-389.262 0,-307 0,-307 0,-307 0,-233 0,-172.131 64.3135,-133.213 115.84,-111.801"/>
<polygon fill="grey" stroke="grey" points="117.318,-114.979 125.294,-108.005 114.71,-108.483 117.318,-114.979"/>
</g>
<!-- 74 -->
<g id="node75" class="node"><title>74</title>
<path fill="none" stroke="#56d87b" stroke-width="2" d="M313,-396C313,-396 161,-396 161,-396 155,-396 149,-390 149,-384 149,-384 149,-372 149,-372 149,-366 155,-360 161,-360 161,-360 313,-360 313,-360 319,-360 325,-366 325,-372 325,-372 325,-384 325,-384 325,-390 319,-396 313,-396"/>
<text text-anchor="middle" x="237" y="-375.5" font-family="sans" font-size="10.00">separate_variant_invariant_sites</text>
</g>
<!-- 28&#45;&gt;74 -->
<g id="edge110" class="edge"><title>28&#45;&gt;74</title>
<path fill="none" stroke="grey" stroke-width="2" d="M237,-431.697C237,-423.983 237,-414.712 237,-406.112"/>
<polygon fill="grey" stroke="grey" points="240.5,-406.104 237,-396.104 233.5,-406.104 240.5,-406.104"/>
</g>
<!-- 29 -->
<g id="node30" class="node"><title>29</title>
<path fill="none" stroke="#d89c56" stroke-width="2" d="M950.25,-468C950.25,-468 853.75,-468 853.75,-468 847.75,-468 841.75,-462 841.75,-456 841.75,-456 841.75,-444 841.75,-444 841.75,-438 847.75,-432 853.75,-432 853.75,-432 950.25,-432 950.25,-432 956.25,-432 962.25,-438 962.25,-444 962.25,-444 962.25,-456 962.25,-456 962.25,-462 956.25,-468 950.25,-468"/>
<text text-anchor="middle" x="902" y="-447.5" font-family="sans" font-size="10.00">gatk_genotype_gvcfs</text>
</g>
<!-- 29&#45;&gt;13 -->
<g id="edge29" class="edge"><title>29&#45;&gt;13</title>
<path fill="none" stroke="grey" stroke-width="2" d="M900.273,-431.966C895.429,-384.192 881.682,-248.623 875.765,-190.266"/>
<polygon fill="grey" stroke="grey" points="879.246,-189.902 874.755,-180.306 872.282,-190.609 879.246,-189.902"/>
</g>
<!-- 75 -->
<g id="node76" class="node"><title>75</title>
<path fill="none" stroke="#56d87b" stroke-width="2" d="M853,-396C853,-396 701,-396 701,-396 695,-396 689,-390 689,-384 689,-384 689,-372 689,-372 689,-366 695,-360 701,-360 701,-360 853,-360 853,-360 859,-360 865,-366 865,-372 865,-372 865,-384 865,-384 865,-390 859,-396 853,-396"/>
<text text-anchor="middle" x="777" y="-375.5" font-family="sans" font-size="10.00">separate_variant_invariant_sites</text>
</g>
<!-- 29&#45;&gt;75 -->
<g id="edge111" class="edge"><title>29&#45;&gt;75</title>
<path fill="none" stroke="grey" stroke-width="2" d="M871.422,-431.876C854.926,-422.639 834.376,-411.131 816.664,-401.212"/>
<polygon fill="grey" stroke="grey" points="818.131,-398.022 807.696,-396.19 814.711,-404.13 818.131,-398.022"/>
</g>
<!-- 30 -->
<g id="node31" class="node"><title>30</title>
<path fill="none" stroke="#d89c56" stroke-width="2" d="M1293.25,-468C1293.25,-468 1196.75,-468 1196.75,-468 1190.75,-468 1184.75,-462 1184.75,-456 1184.75,-456 1184.75,-444 1184.75,-444 1184.75,-438 1190.75,-432 1196.75,-432 1196.75,-432 1293.25,-432 1293.25,-432 1299.25,-432 1305.25,-438 1305.25,-444 1305.25,-444 1305.25,-456 1305.25,-456 1305.25,-462 1299.25,-468 1293.25,-468"/>
<text text-anchor="middle" x="1245" y="-447.5" font-family="sans" font-size="10.00">gatk_genotype_gvcfs</text>
</g>
<!-- 30&#45;&gt;14 -->
<g id="edge30" class="edge"><title>30&#45;&gt;14</title>
<path fill="none" stroke="grey" stroke-width="2" d="M1193.9,-431.966C1164.43,-422.142 1127.19,-409.729 1096.17,-399.389"/>
<polygon fill="grey" stroke="grey" points="1096.93,-395.953 1086.33,-396.111 1094.71,-402.594 1096.93,-395.953"/>
</g>
<!-- 76 -->
<g id="node77" class="node"><title>76</title>
<path fill="none" stroke="#56d87b" stroke-width="2" d="M1321,-396C1321,-396 1169,-396 1169,-396 1163,-396 1157,-390 1157,-384 1157,-384 1157,-372 1157,-372 1157,-366 1163,-360 1169,-360 1169,-360 1321,-360 1321,-360 1327,-360 1333,-366 1333,-372 1333,-372 1333,-384 1333,-384 1333,-390 1327,-396 1321,-396"/>
<text text-anchor="middle" x="1245" y="-375.5" font-family="sans" font-size="10.00">separate_variant_invariant_sites</text>
</g>
<!-- 30&#45;&gt;76 -->
<g id="edge112" class="edge"><title>30&#45;&gt;76</title>
<path fill="none" stroke="grey" stroke-width="2" d="M1245,-431.697C1245,-423.983 1245,-414.712 1245,-406.112"/>
<polygon fill="grey" stroke="grey" points="1248.5,-406.104 1245,-396.104 1241.5,-406.104 1248.5,-406.104"/>
</g>
<!-- 31 -->
<g id="node32" class="node"><title>31</title>
<path fill="none" stroke="#d89c56" stroke-width="2" d="M1923.25,-468C1923.25,-468 1826.75,-468 1826.75,-468 1820.75,-468 1814.75,-462 1814.75,-456 1814.75,-456 1814.75,-444 1814.75,-444 1814.75,-438 1820.75,-432 1826.75,-432 1826.75,-432 1923.25,-432 1923.25,-432 1929.25,-432 1935.25,-438 1935.25,-444 1935.25,-444 1935.25,-456 1935.25,-456 1935.25,-462 1929.25,-468 1923.25,-468"/>
<text text-anchor="middle" x="1875" y="-447.5" font-family="sans" font-size="10.00">gatk_genotype_gvcfs</text>
</g>
<!-- 31&#45;&gt;15 -->
<g id="edge31" class="edge"><title>31&#45;&gt;15</title>
<path fill="none" stroke="grey" stroke-width="2" d="M1875,-431.697C1875,-423.983 1875,-414.712 1875,-406.112"/>
<polygon fill="grey" stroke="grey" points="1878.5,-406.104 1875,-396.104 1871.5,-406.104 1878.5,-406.104"/>
</g>
<!-- 77 -->
<g id="node78" class="node"><title>77</title>
<path fill="none" stroke="#56d87b" stroke-width="2" d="M1761,-396C1761,-396 1609,-396 1609,-396 1603,-396 1597,-390 1597,-384 1597,-384 1597,-372 1597,-372 1597,-366 1603,-360 1609,-360 1609,-360 1761,-360 1761,-360 1767,-360 1773,-366 1773,-372 1773,-372 1773,-384 1773,-384 1773,-390 1767,-396 1761,-396"/>
<text text-anchor="middle" x="1685" y="-375.5" font-family="sans" font-size="10.00">separate_variant_invariant_sites</text>
</g>
<!-- 31&#45;&gt;77 -->
<g id="edge113" class="edge"><title>31&#45;&gt;77</title>
<path fill="none" stroke="grey" stroke-width="2" d="M1828.52,-431.876C1802.08,-422.137 1768.8,-409.872 1740.94,-399.608"/>
<polygon fill="grey" stroke="grey" points="1741.92,-396.241 1731.33,-396.068 1739.5,-402.81 1741.92,-396.241"/>
</g>
<!-- 32 -->
<g id="node33" class="node"><title>32</title>
<path fill="none" stroke="#d6d856" stroke-width="2" d="M2231,-252C2231,-252 2103,-252 2103,-252 2097,-252 2091,-246 2091,-240 2091,-240 2091,-228 2091,-228 2091,-222 2097,-216 2103,-216 2103,-216 2231,-216 2231,-216 2237,-216 2243,-222 2243,-228 2243,-228 2243,-240 2243,-240 2243,-246 2237,-252 2231,-252"/>
<text text-anchor="middle" x="2167" y="-231.5" font-family="sans" font-size="10.00">vcftools_filter_variant_sites</text>
</g>
<!-- 32&#45;&gt;16 -->
<g id="edge32" class="edge"><title>32&#45;&gt;16</title>
<path fill="none" stroke="grey" stroke-width="2" d="M2119.3,-215.966C2091.51,-206.04 2056.31,-193.469 2027.18,-183.065"/>
<polygon fill="grey" stroke="grey" points="2028.15,-179.694 2017.55,-179.627 2025.79,-186.286 2028.15,-179.694"/>
</g>
<!-- 33 -->
<g id="node34" class="node"><title>33</title>
<path fill="none" stroke="#8fd856" stroke-width="2" d="M2039.25,-252C2039.25,-252 1902.75,-252 1902.75,-252 1896.75,-252 1890.75,-246 1890.75,-240 1890.75,-240 1890.75,-228 1890.75,-228 1890.75,-222 1896.75,-216 1902.75,-216 1902.75,-216 2039.25,-216 2039.25,-216 2045.25,-216 2051.25,-222 2051.25,-228 2051.25,-228 2051.25,-240 2051.25,-240 2051.25,-246 2045.25,-252 2039.25,-252"/>
<text text-anchor="middle" x="1971" y="-231.5" font-family="sans" font-size="10.00">vcftools_filter_invariant_sites</text>
</g>
<!-- 33&#45;&gt;16 -->
<g id="edge33" class="edge"><title>33&#45;&gt;16</title>
<path fill="none" stroke="grey" stroke-width="2" d="M1971,-215.697C1971,-207.983 1971,-198.712 1971,-190.112"/>
<polygon fill="grey" stroke="grey" points="1974.5,-190.104 1971,-180.104 1967.5,-190.104 1974.5,-190.104"/>
</g>
<!-- 34 -->
<g id="node35" class="node"><title>34</title>
<path fill="none" stroke="#d6d856" stroke-width="2" d="M2539,-252C2539,-252 2411,-252 2411,-252 2405,-252 2399,-246 2399,-240 2399,-240 2399,-228 2399,-228 2399,-222 2405,-216 2411,-216 2411,-216 2539,-216 2539,-216 2545,-216 2551,-222 2551,-228 2551,-228 2551,-240 2551,-240 2551,-246 2545,-252 2539,-252"/>
<text text-anchor="middle" x="2475" y="-231.5" font-family="sans" font-size="10.00">vcftools_filter_variant_sites</text>
</g>
<!-- 34&#45;&gt;17 -->
<g id="edge34" class="edge"><title>34&#45;&gt;17</title>
<path fill="none" stroke="grey" stroke-width="2" d="M2475,-215.697C2475,-207.983 2475,-198.712 2475,-190.112"/>
<polygon fill="grey" stroke="grey" points="2478.5,-190.104 2475,-180.104 2471.5,-190.104 2478.5,-190.104"/>
</g>
<!-- 35 -->
<g id="node36" class="node"><title>35</title>
<path fill="none" stroke="#8fd856" stroke-width="2" d="M2738.25,-252C2738.25,-252 2601.75,-252 2601.75,-252 2595.75,-252 2589.75,-246 2589.75,-240 2589.75,-240 2589.75,-228 2589.75,-228 2589.75,-222 2595.75,-216 2601.75,-216 2601.75,-216 2738.25,-216 2738.25,-216 2744.25,-216 2750.25,-222 2750.25,-228 2750.25,-228 2750.25,-240 2750.25,-240 2750.25,-246 2744.25,-252 2738.25,-252"/>
<text text-anchor="middle" x="2670" y="-231.5" font-family="sans" font-size="10.00">vcftools_filter_invariant_sites</text>
</g>
<!-- 35&#45;&gt;17 -->
<g id="edge35" class="edge"><title>35&#45;&gt;17</title>
<path fill="none" stroke="grey" stroke-width="2" d="M2622.3,-215.876C2594.74,-205.985 2559.94,-193.49 2531.08,-183.13"/>
<polygon fill="grey" stroke="grey" points="2532.13,-179.79 2521.54,-179.706 2529.77,-186.378 2532.13,-179.79"/>
</g>
<!-- 36 -->
<g id="node37" class="node"><title>36</title>
<path fill="none" stroke="#d6d856" stroke-width="2" d="M2971,-252C2971,-252 2843,-252 2843,-252 2837,-252 2831,-246 2831,-240 2831,-240 2831,-228 2831,-228 2831,-222 2837,-216 2843,-216 2843,-216 2971,-216 2971,-216 2977,-216 2983,-222 2983,-228 2983,-228 2983,-240 2983,-240 2983,-246 2977,-252 2971,-252"/>
<text text-anchor="middle" x="2907" y="-231.5" font-family="sans" font-size="10.00">vcftools_filter_variant_sites</text>
</g>
<!-- 36&#45;&gt;18 -->
<g id="edge36" class="edge"><title>36&#45;&gt;18</title>
<path fill="none" stroke="grey" stroke-width="2" d="M2907,-215.697C2907,-207.983 2907,-198.712 2907,-190.112"/>
<polygon fill="grey" stroke="grey" points="2910.5,-190.104 2907,-180.104 2903.5,-190.104 2910.5,-190.104"/>
</g>
<!-- 37 -->
<g id="node38" class="node"><title>37</title>
<path fill="none" stroke="#8fd856" stroke-width="2" d="M3171.25,-252C3171.25,-252 3034.75,-252 3034.75,-252 3028.75,-252 3022.75,-246 3022.75,-240 3022.75,-240 3022.75,-228 3022.75,-228 3022.75,-222 3028.75,-216 3034.75,-216 3034.75,-216 3171.25,-216 3171.25,-216 3177.25,-216 3183.25,-222 3183.25,-228 3183.25,-228 3183.25,-240 3183.25,-240 3183.25,-246 3177.25,-252 3171.25,-252"/>
<text text-anchor="middle" x="3103" y="-231.5" font-family="sans" font-size="10.00">vcftools_filter_invariant_sites</text>
</g>
<!-- 37&#45;&gt;18 -->
<g id="edge37" class="edge"><title>37&#45;&gt;18</title>
<path fill="none" stroke="grey" stroke-width="2" d="M3055.3,-215.966C3027.51,-206.04 2992.31,-193.469 2963.18,-183.065"/>
<polygon fill="grey" stroke="grey" points="2964.15,-179.694 2953.55,-179.627 2961.79,-186.286 2964.15,-179.694"/>
</g>
<!-- 38 -->
<g id="node39" class="node"><title>38</title>
<path fill="none" stroke="#d6d856" stroke-width="2" d="M409,-252C409,-252 281,-252 281,-252 275,-252 269,-246 269,-240 269,-240 269,-228 269,-228 269,-222 275,-216 281,-216 281,-216 409,-216 409,-216 415,-216 421,-222 421,-228 421,-228 421,-240 421,-240 421,-246 415,-252 409,-252"/>
<text text-anchor="middle" x="345" y="-231.5" font-family="sans" font-size="10.00">vcftools_filter_variant_sites</text>
</g>
<!-- 38&#45;&gt;19 -->
<g id="edge38" class="edge"><title>38&#45;&gt;19</title>
<path fill="none" stroke="grey" stroke-width="2" d="M345,-215.697C345,-207.983 345,-198.712 345,-190.112"/>
<polygon fill="grey" stroke="grey" points="348.5,-190.104 345,-180.104 341.5,-190.104 348.5,-190.104"/>
</g>
<!-- 39 -->
<g id="node40" class="node"><title>39</title>
<path fill="none" stroke="#8fd856" stroke-width="2" d="M218.25,-252C218.25,-252 81.75,-252 81.75,-252 75.75,-252 69.75,-246 69.75,-240 69.75,-240 69.75,-228 69.75,-228 69.75,-222 75.75,-216 81.75,-216 81.75,-216 218.25,-216 218.25,-216 224.25,-216 230.25,-222 230.25,-228 230.25,-228 230.25,-240 230.25,-240 230.25,-246 224.25,-252 218.25,-252"/>
<text text-anchor="middle" x="150" y="-231.5" font-family="sans" font-size="10.00">vcftools_filter_invariant_sites</text>
</g>
<!-- 39&#45;&gt;19 -->
<g id="edge39" class="edge"><title>39&#45;&gt;19</title>
<path fill="none" stroke="grey" stroke-width="2" d="M197.702,-215.876C225.256,-205.985 260.064,-193.49 288.923,-183.13"/>
<polygon fill="grey" stroke="grey" points="290.234,-186.378 298.463,-179.706 287.869,-179.79 290.234,-186.378"/>
</g>
<!-- 40 -->
<g id="node41" class="node"><title>40</title>
<path fill="none" stroke="#d6d856" stroke-width="2" d="M831,-252C831,-252 703,-252 703,-252 697,-252 691,-246 691,-240 691,-240 691,-228 691,-228 691,-222 697,-216 703,-216 703,-216 831,-216 831,-216 837,-216 843,-222 843,-228 843,-228 843,-240 843,-240 843,-246 837,-252 831,-252"/>
<text text-anchor="middle" x="767" y="-231.5" font-family="sans" font-size="10.00">vcftools_filter_variant_sites</text>
</g>
<!-- 40&#45;&gt;20 -->
<g id="edge40" class="edge"><title>40&#45;&gt;20</title>
<path fill="none" stroke="grey" stroke-width="2" d="M756.371,-215.697C751.372,-207.559 745.309,-197.689 739.788,-188.701"/>
<polygon fill="grey" stroke="grey" points="742.723,-186.793 734.507,-180.104 736.759,-190.457 742.723,-186.793"/>
</g>
<!-- 41 -->
<g id="node42" class="node"><title>41</title>
<path fill="none" stroke="#8fd856" stroke-width="2" d="M640.25,-252C640.25,-252 503.75,-252 503.75,-252 497.75,-252 491.75,-246 491.75,-240 491.75,-240 491.75,-228 491.75,-228 491.75,-222 497.75,-216 503.75,-216 503.75,-216 640.25,-216 640.25,-216 646.25,-216 652.25,-222 652.25,-228 652.25,-228 652.25,-240 652.25,-240 652.25,-246 646.25,-252 640.25,-252"/>
<text text-anchor="middle" x="572" y="-231.5" font-family="sans" font-size="10.00">vcftools_filter_invariant_sites</text>
</g>
<!-- 41&#45;&gt;20 -->
<g id="edge41" class="edge"><title>41&#45;&gt;20</title>
<path fill="none" stroke="grey" stroke-width="2" d="M609.183,-215.876C629.87,-206.349 655.802,-194.407 677.785,-184.283"/>
<polygon fill="grey" stroke="grey" points="679.318,-187.43 686.937,-180.068 676.39,-181.072 679.318,-187.43"/>
</g>
<!-- 42 -->
<g id="node43" class="node"><title>42</title>
<path fill="none" stroke="#d6d856" stroke-width="2" d="M1349,-252C1349,-252 1221,-252 1221,-252 1215,-252 1209,-246 1209,-240 1209,-240 1209,-228 1209,-228 1209,-222 1215,-216 1221,-216 1221,-216 1349,-216 1349,-216 1355,-216 1361,-222 1361,-228 1361,-228 1361,-240 1361,-240 1361,-246 1355,-252 1349,-252"/>
<text text-anchor="middle" x="1285" y="-231.5" font-family="sans" font-size="10.00">vcftools_filter_variant_sites</text>
</g>
<!-- 42&#45;&gt;21 -->
<g id="edge42" class="edge"><title>42&#45;&gt;21</title>
<path fill="none" stroke="grey" stroke-width="2" d="M1285,-215.697C1285,-207.983 1285,-198.712 1285,-190.112"/>
<polygon fill="grey" stroke="grey" points="1288.5,-190.104 1285,-180.104 1281.5,-190.104 1288.5,-190.104"/>
</g>
<!-- 43 -->
<g id="node44" class="node"><title>43</title>
<path fill="none" stroke="#8fd856" stroke-width="2" d="M1163.25,-252C1163.25,-252 1026.75,-252 1026.75,-252 1020.75,-252 1014.75,-246 1014.75,-240 1014.75,-240 1014.75,-228 1014.75,-228 1014.75,-222 1020.75,-216 1026.75,-216 1026.75,-216 1163.25,-216 1163.25,-216 1169.25,-216 1175.25,-222 1175.25,-228 1175.25,-228 1175.25,-240 1175.25,-240 1175.25,-246 1169.25,-252 1163.25,-252"/>
<text text-anchor="middle" x="1095" y="-231.5" font-family="sans" font-size="10.00">vcftools_filter_invariant_sites</text>
</g>
<!-- 43&#45;&gt;21 -->
<g id="edge43" class="edge"><title>43&#45;&gt;21</title>
<path fill="none" stroke="grey" stroke-width="2" d="M1141.48,-215.876C1167.92,-206.137 1201.2,-193.872 1229.06,-183.608"/>
<polygon fill="grey" stroke="grey" points="1230.5,-186.81 1238.67,-180.068 1228.08,-180.241 1230.5,-186.81"/>
</g>
<!-- 44 -->
<g id="node45" class="node"><title>44</title>
<path fill="none" stroke="#d6d856" stroke-width="2" d="M1781,-252C1781,-252 1653,-252 1653,-252 1647,-252 1641,-246 1641,-240 1641,-240 1641,-228 1641,-228 1641,-222 1647,-216 1653,-216 1653,-216 1781,-216 1781,-216 1787,-216 1793,-222 1793,-228 1793,-228 1793,-240 1793,-240 1793,-246 1787,-252 1781,-252"/>
<text text-anchor="middle" x="1717" y="-231.5" font-family="sans" font-size="10.00">vcftools_filter_variant_sites</text>
</g>
<!-- 44&#45;&gt;22 -->
<g id="edge44" class="edge"><title>44&#45;&gt;22</title>
<path fill="none" stroke="grey" stroke-width="2" d="M1717,-215.697C1717,-207.983 1717,-198.712 1717,-190.112"/>
<polygon fill="grey" stroke="grey" points="1720.5,-190.104 1717,-180.104 1713.5,-190.104 1720.5,-190.104"/>
</g>
<!-- 45 -->
<g id="node46" class="node"><title>45</title>
<path fill="none" stroke="#8fd856" stroke-width="2" d="M1589.25,-252C1589.25,-252 1452.75,-252 1452.75,-252 1446.75,-252 1440.75,-246 1440.75,-240 1440.75,-240 1440.75,-228 1440.75,-228 1440.75,-222 1446.75,-216 1452.75,-216 1452.75,-216 1589.25,-216 1589.25,-216 1595.25,-216 1601.25,-222 1601.25,-228 1601.25,-228 1601.25,-240 1601.25,-240 1601.25,-246 1595.25,-252 1589.25,-252"/>
<text text-anchor="middle" x="1521" y="-231.5" font-family="sans" font-size="10.00">vcftools_filter_invariant_sites</text>
</g>
<!-- 45&#45;&gt;22 -->
<g id="edge45" class="edge"><title>45&#45;&gt;22</title>
<path fill="none" stroke="grey" stroke-width="2" d="M1568.7,-215.966C1596.49,-206.04 1631.69,-193.469 1660.82,-183.065"/>
<polygon fill="grey" stroke="grey" points="1662.21,-186.286 1670.45,-179.627 1659.85,-179.694 1662.21,-186.286"/>
</g>
<!-- 46 -->
<g id="node47" class="node"><title>46</title>
<path fill="none" stroke="#a7d856" stroke-width="2" d="M2414,-1044C2414,-1044 2318,-1044 2318,-1044 2312,-1044 2306,-1038 2306,-1032 2306,-1032 2306,-1020 2306,-1020 2306,-1014 2312,-1008 2318,-1008 2318,-1008 2414,-1008 2414,-1008 2420,-1008 2426,-1014 2426,-1020 2426,-1020 2426,-1032 2426,-1032 2426,-1038 2420,-1044 2414,-1044"/>
<text text-anchor="middle" x="2366" y="-1029" font-family="sans" font-size="10.00">download</text>
<text text-anchor="middle" x="2366" y="-1018" font-family="sans" font-size="10.00">sample: SRR1946422</text>
</g>
<!-- 46&#45;&gt;23 -->
<g id="edge46" class="edge"><title>46&#45;&gt;23</title>
<path fill="none" stroke="grey" stroke-width="2" d="M2363.78,-1007.7C2362.78,-999.983 2361.59,-990.712 2360.49,-982.112"/>
<polygon fill="grey" stroke="grey" points="2363.95,-981.576 2359.2,-972.104 2357,-982.469 2363.95,-981.576"/>
</g>
<!-- 47 -->
<g id="node48" class="node"><title>47</title>
<path fill="none" stroke="#a7d856" stroke-width="2" d="M2276,-1044C2276,-1044 2180,-1044 2180,-1044 2174,-1044 2168,-1038 2168,-1032 2168,-1032 2168,-1020 2168,-1020 2168,-1014 2174,-1008 2180,-1008 2180,-1008 2276,-1008 2276,-1008 2282,-1008 2288,-1014 2288,-1020 2288,-1020 2288,-1032 2288,-1032 2288,-1038 2282,-1044 2276,-1044"/>
<text text-anchor="middle" x="2228" y="-1029" font-family="sans" font-size="10.00">download</text>
<text text-anchor="middle" x="2228" y="-1018" font-family="sans" font-size="10.00">sample: SRR1946078</text>
</g>
<!-- 47&#45;&gt;24 -->
<g id="edge47" class="edge"><title>47&#45;&gt;24</title>
<path fill="none" stroke="grey" stroke-width="2" d="M2232.2,-1007.7C2234.1,-999.898 2236.38,-990.509 2238.48,-981.829"/>
<polygon fill="grey" stroke="grey" points="2241.89,-982.648 2240.85,-972.104 2235.08,-980.996 2241.89,-982.648"/>
</g>
<!-- 48 -->
<g id="node49" class="node"><title>48</title>
<path fill="none" stroke="#56d8d0" stroke-width="2" d="M2128.25,-540C2128.25,-540 2035.75,-540 2035.75,-540 2029.75,-540 2023.75,-534 2023.75,-528 2023.75,-528 2023.75,-516 2023.75,-516 2023.75,-510 2029.75,-504 2035.75,-504 2035.75,-504 2128.25,-504 2128.25,-504 2134.25,-504 2140.25,-510 2140.25,-516 2140.25,-516 2140.25,-528 2140.25,-528 2140.25,-534 2134.25,-540 2128.25,-540"/>
<text text-anchor="middle" x="2082" y="-525" font-family="sans" font-size="10.00">gatk_combine_gvcfs</text>
<text text-anchor="middle" x="2082" y="-514" font-family="sans" font-size="10.00">chrom: Chr1</text>
</g>
<!-- 48&#45;&gt;25 -->
<g id="edge48" class="edge"><title>48&#45;&gt;25</title>
<path fill="none" stroke="grey" stroke-width="2" d="M2099.06,-503.697C2107.5,-495.135 2117.82,-484.656 2127.04,-475.304"/>
<polygon fill="grey" stroke="grey" points="2129.61,-477.683 2134.14,-468.104 2124.63,-472.769 2129.61,-477.683"/>
</g>
<!-- 49 -->
<g id="node50" class="node"><title>49</title>
<path fill="none" stroke="#56d8d0" stroke-width="2" d="M2263.25,-540C2263.25,-540 2170.75,-540 2170.75,-540 2164.75,-540 2158.75,-534 2158.75,-528 2158.75,-528 2158.75,-516 2158.75,-516 2158.75,-510 2164.75,-504 2170.75,-504 2170.75,-504 2263.25,-504 2263.25,-504 2269.25,-504 2275.25,-510 2275.25,-516 2275.25,-516 2275.25,-528 2275.25,-528 2275.25,-534 2269.25,-540 2263.25,-540"/>
<text text-anchor="middle" x="2217" y="-525" font-family="sans" font-size="10.00">gatk_combine_gvcfs</text>
<text text-anchor="middle" x="2217" y="-514" font-family="sans" font-size="10.00">chrom: Chr2</text>
</g>
<!-- 49&#45;&gt;26 -->
<g id="edge49" class="edge"><title>49&#45;&gt;26</title>
<path fill="none" stroke="grey" stroke-width="2" d="M2249.54,-503.876C2267.25,-494.554 2289.35,-482.919 2308.32,-472.939"/>
<polygon fill="grey" stroke="grey" points="2310.12,-475.944 2317.34,-468.19 2306.86,-469.75 2310.12,-475.944"/>
</g>
<!-- 50 -->
<g id="node51" class="node"><title>50</title>
<path fill="none" stroke="#56d8d0" stroke-width="2" d="M2398.25,-540C2398.25,-540 2305.75,-540 2305.75,-540 2299.75,-540 2293.75,-534 2293.75,-528 2293.75,-528 2293.75,-516 2293.75,-516 2293.75,-510 2299.75,-504 2305.75,-504 2305.75,-504 2398.25,-504 2398.25,-504 2404.25,-504 2410.25,-510 2410.25,-516 2410.25,-516 2410.25,-528 2410.25,-528 2410.25,-534 2404.25,-540 2398.25,-540"/>
<text text-anchor="middle" x="2352" y="-525" font-family="sans" font-size="10.00">gatk_combine_gvcfs</text>
<text text-anchor="middle" x="2352" y="-514" font-family="sans" font-size="10.00">chrom: Chr3</text>
</g>
<!-- 50&#45;&gt;27 -->
<g id="edge50" class="edge"><title>50&#45;&gt;27</title>
<path fill="none" stroke="grey" stroke-width="2" d="M2410.26,-514.849C2532.05,-501.99 2813.22,-472.304 2944.76,-458.416"/>
<polygon fill="grey" stroke="grey" points="2945.15,-461.894 2954.73,-457.363 2944.42,-454.933 2945.15,-461.894"/>
</g>
<!-- 51 -->
<g id="node52" class="node"><title>51</title>
<path fill="none" stroke="#56d8d0" stroke-width="2" d="M1588.25,-540C1588.25,-540 1495.75,-540 1495.75,-540 1489.75,-540 1483.75,-534 1483.75,-528 1483.75,-528 1483.75,-516 1483.75,-516 1483.75,-510 1489.75,-504 1495.75,-504 1495.75,-504 1588.25,-504 1588.25,-504 1594.25,-504 1600.25,-510 1600.25,-516 1600.25,-516 1600.25,-528 1600.25,-528 1600.25,-534 1594.25,-540 1588.25,-540"/>
<text text-anchor="middle" x="1542" y="-525" font-family="sans" font-size="10.00">gatk_combine_gvcfs</text>
<text text-anchor="middle" x="1542" y="-514" font-family="sans" font-size="10.00">chrom: Chr4</text>
</g>
<!-- 51&#45;&gt;28 -->
<g id="edge51" class="edge"><title>51&#45;&gt;28</title>
<path fill="none" stroke="grey" stroke-width="2" d="M1483.39,-517.856C1270.55,-506.439 538.841,-467.191 307.62,-454.788"/>
<polygon fill="grey" stroke="grey" points="307.491,-451.276 297.318,-454.235 307.116,-458.266 307.491,-451.276"/>
</g>
<!-- 52 -->
<g id="node53" class="node"><title>52</title>
<path fill="none" stroke="#56d8d0" stroke-width="2" d="M1723.25,-540C1723.25,-540 1630.75,-540 1630.75,-540 1624.75,-540 1618.75,-534 1618.75,-528 1618.75,-528 1618.75,-516 1618.75,-516 1618.75,-510 1624.75,-504 1630.75,-504 1630.75,-504 1723.25,-504 1723.25,-504 1729.25,-504 1735.25,-510 1735.25,-516 1735.25,-516 1735.25,-528 1735.25,-528 1735.25,-534 1729.25,-540 1723.25,-540"/>
<text text-anchor="middle" x="1677" y="-525" font-family="sans" font-size="10.00">gatk_combine_gvcfs</text>
<text text-anchor="middle" x="1677" y="-514" font-family="sans" font-size="10.00">chrom: Chr5</text>
</g>
<!-- 52&#45;&gt;29 -->
<g id="edge52" class="edge"><title>52&#45;&gt;29</title>
<path fill="none" stroke="grey" stroke-width="2" d="M1618.53,-505.71C1615.31,-505.081 1612.12,-504.504 1609,-504 1547.33,-494.054 1138.9,-466.555 972.433,-455.596"/>
<polygon fill="grey" stroke="grey" points="972.509,-452.093 962.301,-454.929 972.049,-459.078 972.509,-452.093"/>
</g>
<!-- 53 -->
<g id="node54" class="node"><title>53</title>
<path fill="none" stroke="#56d8d0" stroke-width="2" d="M1858.25,-540C1858.25,-540 1765.75,-540 1765.75,-540 1759.75,-540 1753.75,-534 1753.75,-528 1753.75,-528 1753.75,-516 1753.75,-516 1753.75,-510 1759.75,-504 1765.75,-504 1765.75,-504 1858.25,-504 1858.25,-504 1864.25,-504 1870.25,-510 1870.25,-516 1870.25,-516 1870.25,-528 1870.25,-528 1870.25,-534 1864.25,-540 1858.25,-540"/>
<text text-anchor="middle" x="1812" y="-525" font-family="sans" font-size="10.00">gatk_combine_gvcfs</text>
<text text-anchor="middle" x="1812" y="-514" font-family="sans" font-size="10.00">chrom: ChrC</text>
</g>
<!-- 53&#45;&gt;30 -->
<g id="edge53" class="edge"><title>53&#45;&gt;30</title>
<path fill="none" stroke="grey" stroke-width="2" d="M1753.51,-505.827C1750.3,-505.167 1747.12,-504.552 1744,-504 1592.38,-477.131 1412.27,-462.1 1315.27,-455.368"/>
<polygon fill="grey" stroke="grey" points="1315.51,-451.876 1305.29,-454.685 1315.03,-458.86 1315.51,-451.876"/>
</g>
<!-- 54 -->
<g id="node55" class="node"><title>54</title>
<path fill="none" stroke="#56d8d0" stroke-width="2" d="M1993.25,-540C1993.25,-540 1900.75,-540 1900.75,-540 1894.75,-540 1888.75,-534 1888.75,-528 1888.75,-528 1888.75,-516 1888.75,-516 1888.75,-510 1894.75,-504 1900.75,-504 1900.75,-504 1993.25,-504 1993.25,-504 1999.25,-504 2005.25,-510 2005.25,-516 2005.25,-516 2005.25,-528 2005.25,-528 2005.25,-534 1999.25,-540 1993.25,-540"/>
<text text-anchor="middle" x="1947" y="-525" font-family="sans" font-size="10.00">gatk_combine_gvcfs</text>
<text text-anchor="middle" x="1947" y="-514" font-family="sans" font-size="10.00">chrom: ChrM</text>
</g>
<!-- 54&#45;&gt;31 -->
<g id="edge54" class="edge"><title>54&#45;&gt;31</title>
<path fill="none" stroke="grey" stroke-width="2" d="M1929.2,-503.697C1920.4,-495.135 1909.62,-484.656 1900,-475.304"/>
<polygon fill="grey" stroke="grey" points="1902.2,-472.566 1892.59,-468.104 1897.32,-477.585 1902.2,-472.566"/>
</g>
<!-- 55 -->
<g id="node56" class="node"><title>55</title>
<path fill="none" stroke="#56d8b9" stroke-width="2" d="M2271.25,-324C2271.25,-324 2102.75,-324 2102.75,-324 2096.75,-324 2090.75,-318 2090.75,-312 2090.75,-312 2090.75,-300 2090.75,-300 2090.75,-294 2096.75,-288 2102.75,-288 2102.75,-288 2271.25,-288 2271.25,-288 2277.25,-288 2283.25,-294 2283.25,-300 2283.25,-300 2283.25,-312 2283.25,-312 2283.25,-318 2277.25,-324 2271.25,-324"/>
<text text-anchor="middle" x="2187" y="-303.5" font-family="sans" font-size="10.00">gatk_variant_filtration_variant_sites</text>
</g>
<!-- 55&#45;&gt;32 -->
<g id="edge55" class="edge"><title>55&#45;&gt;32</title>
<path fill="none" stroke="grey" stroke-width="2" d="M2182.06,-287.697C2179.83,-279.898 2177.15,-270.509 2174.67,-261.829"/>
<polygon fill="grey" stroke="grey" points="2178,-260.758 2171.89,-252.104 2171.27,-262.681 2178,-260.758"/>
</g>
<!-- 56 -->
<g id="node57" class="node"><title>56</title>
<path fill="none" stroke="#d85656" stroke-width="2" d="M2060,-324C2060,-324 1882,-324 1882,-324 1876,-324 1870,-318 1870,-312 1870,-312 1870,-300 1870,-300 1870,-294 1876,-288 1882,-288 1882,-288 2060,-288 2060,-288 2066,-288 2072,-294 2072,-300 2072,-300 2072,-312 2072,-312 2072,-318 2066,-324 2060,-324"/>
<text text-anchor="middle" x="1971" y="-303.5" font-family="sans" font-size="10.00">gatk_variant_filtration_invariant_sites</text>
</g>
<!-- 56&#45;&gt;33 -->
<g id="edge56" class="edge"><title>56&#45;&gt;33</title>
<path fill="none" stroke="grey" stroke-width="2" d="M1971,-287.697C1971,-279.983 1971,-270.712 1971,-262.112"/>
<polygon fill="grey" stroke="grey" points="1974.5,-262.104 1971,-252.104 1967.5,-262.104 1974.5,-262.104"/>
</g>
<!-- 57 -->
<g id="node58" class="node"><title>57</title>
<path fill="none" stroke="#56d8b9" stroke-width="2" d="M2559.25,-324C2559.25,-324 2390.75,-324 2390.75,-324 2384.75,-324 2378.75,-318 2378.75,-312 2378.75,-312 2378.75,-300 2378.75,-300 2378.75,-294 2384.75,-288 2390.75,-288 2390.75,-288 2559.25,-288 2559.25,-288 2565.25,-288 2571.25,-294 2571.25,-300 2571.25,-300 2571.25,-312 2571.25,-312 2571.25,-318 2565.25,-324 2559.25,-324"/>
<text text-anchor="middle" x="2475" y="-303.5" font-family="sans" font-size="10.00">gatk_variant_filtration_variant_sites</text>
</g>
<!-- 57&#45;&gt;34 -->
<g id="edge57" class="edge"><title>57&#45;&gt;34</title>
<path fill="none" stroke="grey" stroke-width="2" d="M2475,-287.697C2475,-279.983 2475,-270.712 2475,-262.112"/>
<polygon fill="grey" stroke="grey" points="2478.5,-262.104 2475,-252.104 2471.5,-262.104 2478.5,-262.104"/>
</g>
<!-- 58 -->
<g id="node59" class="node"><title>58</title>
<path fill="none" stroke="#d85656" stroke-width="2" d="M2780,-324C2780,-324 2602,-324 2602,-324 2596,-324 2590,-318 2590,-312 2590,-312 2590,-300 2590,-300 2590,-294 2596,-288 2602,-288 2602,-288 2780,-288 2780,-288 2786,-288 2792,-294 2792,-300 2792,-300 2792,-312 2792,-312 2792,-318 2786,-324 2780,-324"/>
<text text-anchor="middle" x="2691" y="-303.5" font-family="sans" font-size="10.00">gatk_variant_filtration_invariant_sites</text>
</g>
<!-- 58&#45;&gt;35 -->
<g id="edge58" class="edge"><title>58&#45;&gt;35</title>
<path fill="none" stroke="grey" stroke-width="2" d="M2685.81,-287.697C2683.47,-279.898 2680.65,-270.509 2678.05,-261.829"/>
<polygon fill="grey" stroke="grey" points="2681.36,-260.677 2675.13,-252.104 2674.65,-262.688 2681.36,-260.677"/>
</g>
<!-- 59 -->
<g id="node60" class="node"><title>59</title>
<path fill="none" stroke="#56d8b9" stroke-width="2" d="M2991.25,-324C2991.25,-324 2822.75,-324 2822.75,-324 2816.75,-324 2810.75,-318 2810.75,-312 2810.75,-312 2810.75,-300 2810.75,-300 2810.75,-294 2816.75,-288 2822.75,-288 2822.75,-288 2991.25,-288 2991.25,-288 2997.25,-288 3003.25,-294 3003.25,-300 3003.25,-300 3003.25,-312 3003.25,-312 3003.25,-318 2997.25,-324 2991.25,-324"/>
<text text-anchor="middle" x="2907" y="-303.5" font-family="sans" font-size="10.00">gatk_variant_filtration_variant_sites</text>
</g>
<!-- 59&#45;&gt;36 -->
<g id="edge59" class="edge"><title>59&#45;&gt;36</title>
<path fill="none" stroke="grey" stroke-width="2" d="M2907,-287.697C2907,-279.983 2907,-270.712 2907,-262.112"/>
<polygon fill="grey" stroke="grey" points="2910.5,-262.104 2907,-252.104 2903.5,-262.104 2910.5,-262.104"/>
</g>
<!-- 60 -->
<g id="node61" class="node"><title>60</title>
<path fill="none" stroke="#d85656" stroke-width="2" d="M3212,-324C3212,-324 3034,-324 3034,-324 3028,-324 3022,-318 3022,-312 3022,-312 3022,-300 3022,-300 3022,-294 3028,-288 3034,-288 3034,-288 3212,-288 3212,-288 3218,-288 3224,-294 3224,-300 3224,-300 3224,-312 3224,-312 3224,-318 3218,-324 3212,-324"/>
<text text-anchor="middle" x="3123" y="-303.5" font-family="sans" font-size="10.00">gatk_variant_filtration_invariant_sites</text>
</g>
<!-- 60&#45;&gt;37 -->
<g id="edge60" class="edge"><title>60&#45;&gt;37</title>
<path fill="none" stroke="grey" stroke-width="2" d="M3118.06,-287.697C3115.83,-279.898 3113.15,-270.509 3110.67,-261.829"/>
<polygon fill="grey" stroke="grey" points="3114,-260.758 3107.89,-252.104 3107.27,-262.681 3114,-260.758"/>
</g>
<!-- 61 -->
<g id="node62" class="node"><title>61</title>
<path fill="none" stroke="#56d8b9" stroke-width="2" d="M429.25,-324C429.25,-324 260.75,-324 260.75,-324 254.75,-324 248.75,-318 248.75,-312 248.75,-312 248.75,-300 248.75,-300 248.75,-294 254.75,-288 260.75,-288 260.75,-288 429.25,-288 429.25,-288 435.25,-288 441.25,-294 441.25,-300 441.25,-300 441.25,-312 441.25,-312 441.25,-318 435.25,-324 429.25,-324"/>
<text text-anchor="middle" x="345" y="-303.5" font-family="sans" font-size="10.00">gatk_variant_filtration_variant_sites</text>
</g>
<!-- 61&#45;&gt;38 -->
<g id="edge61" class="edge"><title>61&#45;&gt;38</title>
<path fill="none" stroke="grey" stroke-width="2" d="M345,-287.697C345,-279.983 345,-270.712 345,-262.112"/>
<polygon fill="grey" stroke="grey" points="348.5,-262.104 345,-252.104 341.5,-262.104 348.5,-262.104"/>
</g>
<!-- 62 -->
<g id="node63" class="node"><title>62</title>
<path fill="none" stroke="#d85656" stroke-width="2" d="M218,-324C218,-324 40,-324 40,-324 34,-324 28,-318 28,-312 28,-312 28,-300 28,-300 28,-294 34,-288 40,-288 40,-288 218,-288 218,-288 224,-288 230,-294 230,-300 230,-300 230,-312 230,-312 230,-318 224,-324 218,-324"/>
<text text-anchor="middle" x="129" y="-303.5" font-family="sans" font-size="10.00">gatk_variant_filtration_invariant_sites</text>
</g>
<!-- 62&#45;&gt;39 -->
<g id="edge62" class="edge"><title>62&#45;&gt;39</title>
<path fill="none" stroke="grey" stroke-width="2" d="M134.191,-287.697C136.531,-279.898 139.347,-270.509 141.951,-261.829"/>
<polygon fill="grey" stroke="grey" points="145.348,-262.688 144.869,-252.104 138.643,-260.677 145.348,-262.688"/>
</g>
<!-- 63 -->
<g id="node64" class="node"><title>63</title>
<path fill="none" stroke="#56d8b9" stroke-width="2" d="M861.25,-324C861.25,-324 692.75,-324 692.75,-324 686.75,-324 680.75,-318 680.75,-312 680.75,-312 680.75,-300 680.75,-300 680.75,-294 686.75,-288 692.75,-288 692.75,-288 861.25,-288 861.25,-288 867.25,-288 873.25,-294 873.25,-300 873.25,-300 873.25,-312 873.25,-312 873.25,-318 867.25,-324 861.25,-324"/>
<text text-anchor="middle" x="777" y="-303.5" font-family="sans" font-size="10.00">gatk_variant_filtration_variant_sites</text>
</g>
<!-- 63&#45;&gt;40 -->
<g id="edge63" class="edge"><title>63&#45;&gt;40</title>
<path fill="none" stroke="grey" stroke-width="2" d="M774.528,-287.697C773.426,-279.983 772.102,-270.712 770.873,-262.112"/>
<polygon fill="grey" stroke="grey" points="774.323,-261.509 769.443,-252.104 767.393,-262.499 774.323,-261.509"/>
</g>
<!-- 64 -->
<g id="node65" class="node"><title>64</title>
<path fill="none" stroke="#d85656" stroke-width="2" d="M650,-324C650,-324 472,-324 472,-324 466,-324 460,-318 460,-312 460,-312 460,-300 460,-300 460,-294 466,-288 472,-288 472,-288 650,-288 650,-288 656,-288 662,-294 662,-300 662,-300 662,-312 662,-312 662,-318 656,-324 650,-324"/>
<text text-anchor="middle" x="561" y="-303.5" font-family="sans" font-size="10.00">gatk_variant_filtration_invariant_sites</text>
</g>
<!-- 64&#45;&gt;41 -->
<g id="edge64" class="edge"><title>64&#45;&gt;41</title>
<path fill="none" stroke="grey" stroke-width="2" d="M563.719,-287.697C564.931,-279.983 566.388,-270.712 567.739,-262.112"/>
<polygon fill="grey" stroke="grey" points="571.217,-262.526 569.312,-252.104 564.302,-261.44 571.217,-262.526"/>
</g>
<!-- 65 -->
<g id="node66" class="node"><title>65</title>
<path fill="none" stroke="#56d8b9" stroke-width="2" d="M1369.25,-324C1369.25,-324 1200.75,-324 1200.75,-324 1194.75,-324 1188.75,-318 1188.75,-312 1188.75,-312 1188.75,-300 1188.75,-300 1188.75,-294 1194.75,-288 1200.75,-288 1200.75,-288 1369.25,-288 1369.25,-288 1375.25,-288 1381.25,-294 1381.25,-300 1381.25,-300 1381.25,-312 1381.25,-312 1381.25,-318 1375.25,-324 1369.25,-324"/>
<text text-anchor="middle" x="1285" y="-303.5" font-family="sans" font-size="10.00">gatk_variant_filtration_variant_sites</text>
</g>
<!-- 65&#45;&gt;42 -->
<g id="edge65" class="edge"><title>65&#45;&gt;42</title>
<path fill="none" stroke="grey" stroke-width="2" d="M1285,-287.697C1285,-279.983 1285,-270.712 1285,-262.112"/>
<polygon fill="grey" stroke="grey" points="1288.5,-262.104 1285,-252.104 1281.5,-262.104 1288.5,-262.104"/>
</g>
<!-- 66 -->
<g id="node67" class="node"><title>66</title>
<path fill="none" stroke="#d85656" stroke-width="2" d="M1158,-324C1158,-324 980,-324 980,-324 974,-324 968,-318 968,-312 968,-312 968,-300 968,-300 968,-294 974,-288 980,-288 980,-288 1158,-288 1158,-288 1164,-288 1170,-294 1170,-300 1170,-300 1170,-312 1170,-312 1170,-318 1164,-324 1158,-324"/>
<text text-anchor="middle" x="1069" y="-303.5" font-family="sans" font-size="10.00">gatk_variant_filtration_invariant_sites</text>
</g>
<!-- 66&#45;&gt;43 -->
<g id="edge66" class="edge"><title>66&#45;&gt;43</title>
<path fill="none" stroke="grey" stroke-width="2" d="M1075.43,-287.697C1078.36,-279.813 1081.89,-270.304 1085.14,-261.546"/>
<polygon fill="grey" stroke="grey" points="1088.45,-262.697 1088.65,-252.104 1081.88,-260.26 1088.45,-262.697"/>
</g>
<!-- 67 -->
<g id="node68" class="node"><title>67</title>
<path fill="none" stroke="#56d8b9" stroke-width="2" d="M1801.25,-324C1801.25,-324 1632.75,-324 1632.75,-324 1626.75,-324 1620.75,-318 1620.75,-312 1620.75,-312 1620.75,-300 1620.75,-300 1620.75,-294 1626.75,-288 1632.75,-288 1632.75,-288 1801.25,-288 1801.25,-288 1807.25,-288 1813.25,-294 1813.25,-300 1813.25,-300 1813.25,-312 1813.25,-312 1813.25,-318 1807.25,-324 1801.25,-324"/>
<text text-anchor="middle" x="1717" y="-303.5" font-family="sans" font-size="10.00">gatk_variant_filtration_variant_sites</text>
</g>
<!-- 67&#45;&gt;44 -->
<g id="edge67" class="edge"><title>67&#45;&gt;44</title>
<path fill="none" stroke="grey" stroke-width="2" d="M1717,-287.697C1717,-279.983 1717,-270.712 1717,-262.112"/>
<polygon fill="grey" stroke="grey" points="1720.5,-262.104 1717,-252.104 1713.5,-262.104 1720.5,-262.104"/>
</g>
<!-- 68 -->
<g id="node69" class="node"><title>68</title>
<path fill="none" stroke="#d85656" stroke-width="2" d="M1590,-324C1590,-324 1412,-324 1412,-324 1406,-324 1400,-318 1400,-312 1400,-312 1400,-300 1400,-300 1400,-294 1406,-288 1412,-288 1412,-288 1590,-288 1590,-288 1596,-288 1602,-294 1602,-300 1602,-300 1602,-312 1602,-312 1602,-318 1596,-324 1590,-324"/>
<text text-anchor="middle" x="1501" y="-303.5" font-family="sans" font-size="10.00">gatk_variant_filtration_invariant_sites</text>
</g>
<!-- 68&#45;&gt;45 -->
<g id="edge68" class="edge"><title>68&#45;&gt;45</title>
<path fill="none" stroke="grey" stroke-width="2" d="M1505.94,-287.697C1508.17,-279.898 1510.85,-270.509 1513.33,-261.829"/>
<polygon fill="grey" stroke="grey" points="1516.73,-262.681 1516.11,-252.104 1510,-260.758 1516.73,-262.681"/>
</g>
<!-- 69 -->
<g id="node70" class="node"><title>69</title>
<path fill="none" stroke="#56c9d8" stroke-width="2" d="M2132.25,-612C2132.25,-612 2031.75,-612 2031.75,-612 2025.75,-612 2019.75,-606 2019.75,-600 2019.75,-600 2019.75,-588 2019.75,-588 2019.75,-582 2025.75,-576 2031.75,-576 2031.75,-576 2132.25,-576 2132.25,-576 2138.25,-576 2144.25,-582 2144.25,-588 2144.25,-588 2144.25,-600 2144.25,-600 2144.25,-606 2138.25,-612 2132.25,-612"/>
<text text-anchor="middle" x="2082" y="-591.5" font-family="sans" font-size="10.00">gatk_haplotype_caller</text>
</g>
<!-- 69&#45;&gt;48 -->
<g id="edge69" class="edge"><title>69&#45;&gt;48</title>
<path fill="none" stroke="grey" stroke-width="2" d="M2082,-575.697C2082,-567.983 2082,-558.712 2082,-550.112"/>
<polygon fill="grey" stroke="grey" points="2085.5,-550.104 2082,-540.104 2078.5,-550.104 2085.5,-550.104"/>
</g>
<!-- 69&#45;&gt;49 -->
<g id="edge71" class="edge"><title>69&#45;&gt;49</title>
<path fill="none" stroke="grey" stroke-width="2" d="M2115.02,-575.876C2133.08,-566.512 2155.65,-554.814 2174.95,-544.803"/>
<polygon fill="grey" stroke="grey" points="2176.58,-547.9 2183.85,-540.19 2173.36,-541.686 2176.58,-547.9"/>
</g>
<!-- 69&#45;&gt;50 -->
<g id="edge73" class="edge"><title>69&#45;&gt;50</title>
<path fill="none" stroke="grey" stroke-width="2" d="M2144.28,-576.853C2186.04,-566.027 2241.02,-551.772 2283.93,-540.647"/>
<polygon fill="grey" stroke="grey" points="2284.92,-544.006 2293.73,-538.108 2283.17,-537.23 2284.92,-544.006"/>
</g>
<!-- 69&#45;&gt;51 -->
<g id="edge75" class="edge"><title>69&#45;&gt;51</title>
<path fill="none" stroke="grey" stroke-width="2" d="M2019.64,-585.52C1994.31,-582.513 1964.76,-579.044 1938,-576 1795.13,-559.75 1755.52,-565.859 1610.52,-540.142"/>
<polygon fill="grey" stroke="grey" points="1610.82,-536.639 1600.36,-538.318 1609.59,-543.529 1610.82,-536.639"/>
</g>
<!-- 69&#45;&gt;52 -->
<g id="edge77" class="edge"><title>69&#45;&gt;52</title>
<path fill="none" stroke="grey" stroke-width="2" d="M2019.7,-584.999C1953.84,-576.144 1846.75,-560.616 1745.49,-540.211"/>
<polygon fill="grey" stroke="grey" points="1745.89,-536.721 1735.39,-538.156 1744.49,-543.58 1745.89,-536.721"/>
</g>
<!-- 69&#45;&gt;53 -->
<g id="edge79" class="edge"><title>69&#45;&gt;53</title>
<path fill="none" stroke="grey" stroke-width="2" d="M2019.72,-576.853C1977.96,-566.027 1922.98,-551.772 1880.07,-540.647"/>
<polygon fill="grey" stroke="grey" points="1880.83,-537.23 1870.27,-538.108 1879.08,-544.006 1880.83,-537.23"/>
</g>
<!-- 69&#45;&gt;54 -->
<g id="edge81" class="edge"><title>69&#45;&gt;54</title>
<path fill="none" stroke="grey" stroke-width="2" d="M2048.98,-575.876C2030.92,-566.512 2008.35,-554.814 1989.05,-544.803"/>
<polygon fill="grey" stroke="grey" points="1990.64,-541.686 1980.15,-540.19 1987.42,-547.9 1990.64,-541.686"/>
</g>
<!-- 70 -->
<g id="node71" class="node"><title>70</title>
<path fill="none" stroke="#56c9d8" stroke-width="2" d="M1917.25,-612C1917.25,-612 1816.75,-612 1816.75,-612 1810.75,-612 1804.75,-606 1804.75,-600 1804.75,-600 1804.75,-588 1804.75,-588 1804.75,-582 1810.75,-576 1816.75,-576 1816.75,-576 1917.25,-576 1917.25,-576 1923.25,-576 1929.25,-582 1929.25,-588 1929.25,-588 1929.25,-600 1929.25,-600 1929.25,-606 1923.25,-612 1917.25,-612"/>
<text text-anchor="middle" x="1867" y="-591.5" font-family="sans" font-size="10.00">gatk_haplotype_caller</text>
</g>
<!-- 70&#45;&gt;48 -->
<g id="edge70" class="edge"><title>70&#45;&gt;48</title>
<path fill="none" stroke="grey" stroke-width="2" d="M1919.32,-575.966C1949.62,-566.1 1987.95,-553.622 2019.79,-543.255"/>
<polygon fill="grey" stroke="grey" points="2021.02,-546.535 2029.45,-540.111 2018.85,-539.879 2021.02,-546.535"/>
</g>
<!-- 70&#45;&gt;49 -->
<g id="edge72" class="edge"><title>70&#45;&gt;49</title>
<path fill="none" stroke="grey" stroke-width="2" d="M1929.38,-582.369C1984.43,-572.739 2067.05,-557.682 2148.52,-540.037"/>
<polygon fill="grey" stroke="grey" points="2149.42,-543.422 2158.45,-537.872 2147.93,-536.583 2149.42,-543.422"/>
</g>
<!-- 70&#45;&gt;50 -->
<g id="edge74" class="edge"><title>70&#45;&gt;50</title>
<path fill="none" stroke="grey" stroke-width="2" d="M1929.49,-585.473C2030.56,-573.242 2223.8,-549.595 2283.42,-539.851"/>
<polygon fill="grey" stroke="grey" points="2284.24,-543.26 2293.49,-538.095 2283.04,-536.364 2284.24,-543.26"/>
</g>
<!-- 70&#45;&gt;51 -->
<g id="edge76" class="edge"><title>70&#45;&gt;51</title>
<path fill="none" stroke="grey" stroke-width="2" d="M1804.53,-581C1754.52,-571.204 1682.36,-556.643 1610.55,-540.309"/>
<polygon fill="grey" stroke="grey" points="1610.96,-536.811 1600.43,-537.993 1609.4,-543.634 1610.96,-536.811"/>
</g>
<!-- 70&#45;&gt;52 -->
<g id="edge78" class="edge"><title>70&#45;&gt;52</title>
<path fill="none" stroke="grey" stroke-width="2" d="M1820.52,-575.876C1794.08,-566.137 1760.8,-553.872 1732.94,-543.608"/>
<polygon fill="grey" stroke="grey" points="1733.92,-540.241 1723.33,-540.068 1731.5,-546.81 1733.92,-540.241"/>
</g>
<!-- 70&#45;&gt;53 -->
<g id="edge80" class="edge"><title>70&#45;&gt;53</title>
<path fill="none" stroke="grey" stroke-width="2" d="M1853.4,-575.697C1846.88,-567.389 1838.93,-557.277 1831.75,-548.141"/>
<polygon fill="grey" stroke="grey" points="1834.37,-545.805 1825.44,-540.104 1828.87,-550.13 1834.37,-545.805"/>
</g>
<!-- 70&#45;&gt;54 -->
<g id="edge82" class="edge"><title>70&#45;&gt;54</title>
<path fill="none" stroke="grey" stroke-width="2" d="M1886.78,-575.697C1896.75,-566.965 1909.01,-556.24 1919.86,-546.75"/>
<polygon fill="grey" stroke="grey" points="1922.23,-549.323 1927.45,-540.104 1917.62,-544.055 1922.23,-549.323"/>
</g>
<!-- 71&#45;&gt;55 -->
<g id="edge83" class="edge"><title>71&#45;&gt;55</title>
<path fill="none" stroke="grey" stroke-width="2" d="M2159.9,-359.697C2164,-351.728 2168.95,-342.1 2173.49,-333.264"/>
<polygon fill="grey" stroke="grey" points="2176.74,-334.598 2178.2,-324.104 2170.52,-331.396 2176.74,-334.598"/>
</g>
<!-- 71&#45;&gt;56 -->
<g id="edge84" class="edge"><title>71&#45;&gt;56</title>
<path fill="none" stroke="grey" stroke-width="2" d="M2106.97,-359.876C2082.03,-350.179 2050.66,-337.98 2024.34,-327.743"/>
<polygon fill="grey" stroke="grey" points="2025.48,-324.431 2014.89,-324.068 2022.94,-330.955 2025.48,-324.431"/>
</g>
<!-- 72&#45;&gt;57 -->
<g id="edge85" class="edge"><title>72&#45;&gt;57</title>
<path fill="none" stroke="grey" stroke-width="2" d="M2475,-359.697C2475,-351.983 2475,-342.712 2475,-334.112"/>
<polygon fill="grey" stroke="grey" points="2478.5,-334.104 2475,-324.104 2471.5,-334.104 2478.5,-334.104"/>
</g>
<!-- 72&#45;&gt;58 -->
<g id="edge86" class="edge"><title>72&#45;&gt;58</title>
<path fill="none" stroke="grey" stroke-width="2" d="M2527.56,-359.966C2558.01,-350.1 2596.51,-337.622 2628.5,-327.255"/>
<polygon fill="grey" stroke="grey" points="2629.77,-330.523 2638.2,-324.111 2627.61,-323.864 2629.77,-330.523"/>
</g>
<!-- 73&#45;&gt;59 -->
<g id="edge87" class="edge"><title>73&#45;&gt;59</title>
<path fill="none" stroke="grey" stroke-width="2" d="M2988.58,-359.876C2974.59,-350.808 2957.22,-339.552 2942.11,-329.759"/>
<polygon fill="grey" stroke="grey" points="2943.82,-326.692 2933.52,-324.19 2940.01,-332.566 2943.82,-326.692"/>
</g>
<!-- 73&#45;&gt;60 -->
<g id="edge88" class="edge"><title>73&#45;&gt;60</title>
<path fill="none" stroke="grey" stroke-width="2" d="M3041.42,-359.876C3055.41,-350.808 3072.78,-339.552 3087.89,-329.759"/>
<polygon fill="grey" stroke="grey" points="3089.99,-332.566 3096.48,-324.19 3086.18,-326.692 3089.99,-332.566"/>
</g>
<!-- 74&#45;&gt;61 -->
<g id="edge89" class="edge"><title>74&#45;&gt;61</title>
<path fill="none" stroke="grey" stroke-width="2" d="M263.42,-359.876C277.41,-350.808 294.776,-339.552 309.886,-329.759"/>
<polygon fill="grey" stroke="grey" points="311.991,-332.566 318.479,-324.19 308.183,-326.692 311.991,-332.566"/>
</g>
<!-- 74&#45;&gt;62 -->
<g id="edge90" class="edge"><title>74&#45;&gt;62</title>
<path fill="none" stroke="grey" stroke-width="2" d="M210.58,-359.876C196.59,-350.808 179.224,-339.552 164.114,-329.759"/>
<polygon fill="grey" stroke="grey" points="165.817,-326.692 155.521,-324.19 162.009,-332.566 165.817,-326.692"/>
</g>
<!-- 75&#45;&gt;63 -->
<g id="edge91" class="edge"><title>75&#45;&gt;63</title>
<path fill="none" stroke="grey" stroke-width="2" d="M777,-359.697C777,-351.983 777,-342.712 777,-334.112"/>
<polygon fill="grey" stroke="grey" points="780.5,-334.104 777,-324.104 773.5,-334.104 780.5,-334.104"/>
</g>
<!-- 75&#45;&gt;64 -->
<g id="edge92" class="edge"><title>75&#45;&gt;64</title>
<path fill="none" stroke="grey" stroke-width="2" d="M724.437,-359.966C693.994,-350.1 655.489,-337.622 623.501,-327.255"/>
<polygon fill="grey" stroke="grey" points="624.391,-323.864 613.799,-324.111 622.233,-330.523 624.391,-323.864"/>
</g>
<!-- 76&#45;&gt;65 -->
<g id="edge93" class="edge"><title>76&#45;&gt;65</title>
<path fill="none" stroke="grey" stroke-width="2" d="M1254.89,-359.697C1259.49,-351.644 1265.06,-341.894 1270.15,-332.982"/>
<polygon fill="grey" stroke="grey" points="1273.3,-334.523 1275.23,-324.104 1267.23,-331.05 1273.3,-334.523"/>
</g>
<!-- 76&#45;&gt;66 -->
<g id="edge94" class="edge"><title>76&#45;&gt;66</title>
<path fill="none" stroke="grey" stroke-width="2" d="M1201.95,-359.876C1177.67,-350.222 1147.16,-338.087 1121.49,-327.878"/>
<polygon fill="grey" stroke="grey" points="1122.5,-324.512 1111.91,-324.068 1119.91,-331.016 1122.5,-324.512"/>
</g>
<!-- 77&#45;&gt;67 -->
<g id="edge95" class="edge"><title>77&#45;&gt;67</title>
<path fill="none" stroke="grey" stroke-width="2" d="M1692.91,-359.697C1696.55,-351.728 1700.95,-342.1 1704.99,-333.264"/>
<polygon fill="grey" stroke="grey" points="1708.21,-334.654 1709.18,-324.104 1701.84,-331.744 1708.21,-334.654"/>
</g>
<!-- 77&#45;&gt;68 -->
<g id="edge96" class="edge"><title>77&#45;&gt;68</title>
<path fill="none" stroke="grey" stroke-width="2" d="M1639.99,-359.876C1614.5,-350.179 1582.43,-337.98 1555.52,-327.743"/>
<polygon fill="grey" stroke="grey" points="1556.46,-324.353 1545.87,-324.068 1553.97,-330.895 1556.46,-324.353"/>
</g>
<!-- 78 -->
<g id="node79" class="node"><title>78</title>
<path fill="none" stroke="#d8c356" stroke-width="2" d="M2116,-756C2116,-756 2048,-756 2048,-756 2042,-756 2036,-750 2036,-744 2036,-744 2036,-732 2036,-732 2036,-726 2042,-720 2048,-720 2048,-720 2116,-720 2116,-720 2122,-720 2128,-726 2128,-732 2128,-732 2128,-744 2128,-744 2128,-750 2122,-756 2116,-756"/>
<text text-anchor="middle" x="2082" y="-735.5" font-family="sans" font-size="10.00">samtools_faidx</text>
</g>
<!-- 78&#45;&gt;69 -->
<g id="edge97" class="edge"><title>78&#45;&gt;69</title>
<path fill="none" stroke="grey" stroke-width="2" d="M2108.12,-719.816C2119.58,-710.692 2131.81,-698.386 2138,-684 2144.33,-669.304 2144.33,-662.696 2138,-648 2133.21,-636.874 2124.81,-626.991 2115.95,-618.863"/>
<polygon fill="grey" stroke="grey" points="2118,-616.013 2108.12,-612.184 2113.46,-621.338 2118,-616.013"/>
</g>
<!-- 78&#45;&gt;70 -->
<g id="edge102" class="edge"><title>78&#45;&gt;70</title>
<path fill="none" stroke="grey" stroke-width="2" d="M2035.96,-734.488C1968.21,-729.721 1846.77,-716.733 1820,-684 1803.88,-664.299 1821.33,-638.203 1839.35,-619.368"/>
<polygon fill="grey" stroke="grey" points="1841.86,-621.813 1846.49,-612.283 1836.92,-616.847 1841.86,-621.813"/>
</g>
<!-- 82 -->
<g id="node83" class="node"><title>82</title>
<path fill="none" stroke="#78d856" stroke-width="2" d="M2117,-684C2117,-684 2047,-684 2047,-684 2041,-684 2035,-678 2035,-672 2035,-672 2035,-660 2035,-660 2035,-654 2041,-648 2047,-648 2047,-648 2117,-648 2117,-648 2123,-648 2129,-654 2129,-660 2129,-660 2129,-672 2129,-672 2129,-678 2123,-684 2117,-684"/>
<text text-anchor="middle" x="2082" y="-663.5" font-family="sans" font-size="10.00">subset_genome</text>
</g>
<!-- 78&#45;&gt;82 -->
<g id="edge116" class="edge"><title>78&#45;&gt;82</title>
<path fill="none" stroke="grey" stroke-width="2" d="M2082,-719.697C2082,-711.983 2082,-702.712 2082,-694.112"/>
<polygon fill="grey" stroke="grey" points="2085.5,-694.104 2082,-684.104 2078.5,-694.104 2085.5,-694.104"/>
</g>
<!-- 79 -->
<g id="node80" class="node"><title>79</title>
<path fill="none" stroke="#56d8a2" stroke-width="2" d="M2005,-684C2005,-684 1841,-684 1841,-684 1835,-684 1829,-678 1829,-672 1829,-672 1829,-660 1829,-660 1829,-654 1835,-648 1841,-648 1841,-648 2005,-648 2005,-648 2011,-648 2017,-654 2017,-660 2017,-660 2017,-672 2017,-672 2017,-678 2011,-684 2005,-684"/>
<text text-anchor="middle" x="1923" y="-663.5" font-family="sans" font-size="10.00">picard_create_sequence_dictionary</text>
</g>
<!-- 79&#45;&gt;69 -->
<g id="edge98" class="edge"><title>79&#45;&gt;69</title>
<path fill="none" stroke="grey" stroke-width="2" d="M1961.9,-647.876C1983.63,-638.307 2010.9,-626.3 2033.96,-616.148"/>
<polygon fill="grey" stroke="grey" points="2035.49,-619.301 2043.23,-612.068 2032.67,-612.894 2035.49,-619.301"/>
</g>
<!-- 79&#45;&gt;70 -->
<g id="edge103" class="edge"><title>79&#45;&gt;70</title>
<path fill="none" stroke="grey" stroke-width="2" d="M1909.16,-647.697C1902.51,-639.389 1894.42,-629.277 1887.11,-620.141"/>
<polygon fill="grey" stroke="grey" points="1889.66,-617.727 1880.68,-612.104 1884.2,-622.099 1889.66,-617.727"/>
</g>
<!-- 80 -->
<g id="node81" class="node"><title>80</title>
<path fill="none" stroke="#56b1d8" stroke-width="2" d="M2323.25,-756C2323.25,-756 2214.75,-756 2214.75,-756 2208.75,-756 2202.75,-750 2202.75,-744 2202.75,-744 2202.75,-732 2202.75,-732 2202.75,-726 2208.75,-720 2214.75,-720 2214.75,-720 2323.25,-720 2323.25,-720 2329.25,-720 2335.25,-726 2335.25,-732 2335.25,-732 2335.25,-744 2335.25,-744 2335.25,-750 2329.25,-756 2323.25,-756"/>
<text text-anchor="middle" x="2269" y="-735.5" font-family="sans" font-size="10.00">picard_mark_duplicates</text>
</g>
<!-- 80&#45;&gt;69 -->
<g id="edge99" class="edge"><title>80&#45;&gt;69</title>
<path fill="none" stroke="grey" stroke-width="2" d="M2280.15,-719.77C2291.16,-700.373 2304.17,-668.852 2288,-648 2271.5,-626.717 2206.94,-612.482 2154.43,-604.172"/>
<polygon fill="grey" stroke="grey" points="2154.86,-600.697 2144.44,-602.639 2153.8,-607.616 2154.86,-600.697"/>
</g>
<!-- 81 -->
<g id="node82" class="node"><title>81</title>
<path fill="none" stroke="#569ad8" stroke-width="2" d="M2267,-684C2267,-684 2197,-684 2197,-684 2191,-684 2185,-678 2185,-672 2185,-672 2185,-660 2185,-660 2185,-654 2191,-648 2197,-648 2197,-648 2267,-648 2267,-648 2273,-648 2279,-654 2279,-660 2279,-660 2279,-672 2279,-672 2279,-678 2273,-684 2267,-684"/>
<text text-anchor="middle" x="2232" y="-663.5" font-family="sans" font-size="10.00">samtools_index</text>
</g>
<!-- 80&#45;&gt;81 -->
<g id="edge115" class="edge"><title>80&#45;&gt;81</title>
<path fill="none" stroke="grey" stroke-width="2" d="M2259.85,-719.697C2255.6,-711.644 2250.44,-701.894 2245.73,-692.982"/>
<polygon fill="grey" stroke="grey" points="2248.81,-691.31 2241.04,-684.104 2242.62,-694.581 2248.81,-691.31"/>
</g>
<!-- 81&#45;&gt;69 -->
<g id="edge100" class="edge"><title>81&#45;&gt;69</title>
<path fill="none" stroke="grey" stroke-width="2" d="M2195.31,-647.876C2174.98,-638.392 2149.53,-626.513 2127.9,-616.419"/>
<polygon fill="grey" stroke="grey" points="2129.12,-613.126 2118.57,-612.068 2126.16,-619.469 2129.12,-613.126"/>
</g>
<!-- 82&#45;&gt;69 -->
<g id="edge101" class="edge"><title>82&#45;&gt;69</title>
<path fill="none" stroke="grey" stroke-width="2" d="M2082,-647.697C2082,-639.983 2082,-630.712 2082,-622.112"/>
<polygon fill="grey" stroke="grey" points="2085.5,-622.104 2082,-612.104 2078.5,-622.104 2085.5,-622.104"/>
</g>
<!-- 82&#45;&gt;70 -->
<g id="edge106" class="edge"><title>82&#45;&gt;70</title>
<path fill="none" stroke="grey" stroke-width="2" d="M2034.82,-649.638C2003.77,-639.528 1962.79,-626.187 1929.1,-615.218"/>
<polygon fill="grey" stroke="grey" points="1929.94,-611.812 1919.35,-612.044 1927.78,-618.468 1929.94,-611.812"/>
</g>
<!-- 83 -->
<g id="node84" class="node"><title>83</title>
<path fill="none" stroke="#56b1d8" stroke-width="2" d="M1817.25,-756C1817.25,-756 1708.75,-756 1708.75,-756 1702.75,-756 1696.75,-750 1696.75,-744 1696.75,-744 1696.75,-732 1696.75,-732 1696.75,-726 1702.75,-720 1708.75,-720 1708.75,-720 1817.25,-720 1817.25,-720 1823.25,-720 1829.25,-726 1829.25,-732 1829.25,-732 1829.25,-744 1829.25,-744 1829.25,-750 1823.25,-756 1817.25,-756"/>
<text text-anchor="middle" x="1763" y="-735.5" font-family="sans" font-size="10.00">picard_mark_duplicates</text>
</g>
<!-- 83&#45;&gt;70 -->
<g id="edge104" class="edge"><title>83&#45;&gt;70</title>
<path fill="none" stroke="grey" stroke-width="2" d="M1764.05,-719.725C1765.99,-700.575 1771.47,-669.551 1787,-648 1795.86,-635.701 1808.54,-625.449 1821.19,-617.342"/>
<polygon fill="grey" stroke="grey" points="1823.15,-620.245 1829.9,-612.074 1819.53,-614.256 1823.15,-620.245"/>
</g>
<!-- 84 -->
<g id="node85" class="node"><title>84</title>
<path fill="none" stroke="#569ad8" stroke-width="2" d="M1723,-684C1723,-684 1653,-684 1653,-684 1647,-684 1641,-678 1641,-672 1641,-672 1641,-660 1641,-660 1641,-654 1647,-648 1653,-648 1653,-648 1723,-648 1723,-648 1729,-648 1735,-654 1735,-660 1735,-660 1735,-672 1735,-672 1735,-678 1729,-684 1723,-684"/>
<text text-anchor="middle" x="1688" y="-663.5" font-family="sans" font-size="10.00">samtools_index</text>
</g>
<!-- 83&#45;&gt;84 -->
<g id="edge118" class="edge"><title>83&#45;&gt;84</title>
<path fill="none" stroke="grey" stroke-width="2" d="M1744.46,-719.697C1735.2,-711.05 1723.84,-700.449 1713.74,-691.027"/>
<polygon fill="grey" stroke="grey" points="1716.02,-688.369 1706.33,-684.104 1711.25,-693.486 1716.02,-688.369"/>
</g>
<!-- 84&#45;&gt;70 -->
<g id="edge105" class="edge"><title>84&#45;&gt;70</title>
<path fill="none" stroke="grey" stroke-width="2" d="M1731.79,-647.876C1756.58,-638.179 1787.78,-625.98 1813.96,-615.743"/>
<polygon fill="grey" stroke="grey" points="1815.32,-618.97 1823.35,-612.068 1812.77,-612.451 1815.32,-618.97"/>
</g>
<!-- 85 -->
<g id="node86" class="node"><title>85</title>
<path fill="none" stroke="#56d892" stroke-width="2" d="M2300,-828C2300,-828 2238,-828 2238,-828 2232,-828 2226,-822 2226,-816 2226,-816 2226,-804 2226,-804 2226,-798 2232,-792 2238,-792 2238,-792 2300,-792 2300,-792 2306,-792 2312,-798 2312,-804 2312,-804 2312,-816 2312,-816 2312,-822 2306,-828 2300,-828"/>
<text text-anchor="middle" x="2269" y="-807.5" font-family="sans" font-size="10.00">samtools_sort</text>
</g>
<!-- 85&#45;&gt;80 -->
<g id="edge114" class="edge"><title>85&#45;&gt;80</title>
<path fill="none" stroke="grey" stroke-width="2" d="M2269,-791.697C2269,-783.983 2269,-774.712 2269,-766.112"/>
<polygon fill="grey" stroke="grey" points="2272.5,-766.104 2269,-756.104 2265.5,-766.104 2272.5,-766.104"/>
</g>
<!-- 86 -->
<g id="node87" class="node"><title>86</title>
<path fill="none" stroke="#56d892" stroke-width="2" d="M2187,-828C2187,-828 2125,-828 2125,-828 2119,-828 2113,-822 2113,-816 2113,-816 2113,-804 2113,-804 2113,-798 2119,-792 2125,-792 2125,-792 2187,-792 2187,-792 2193,-792 2199,-798 2199,-804 2199,-804 2199,-816 2199,-816 2199,-822 2193,-828 2187,-828"/>
<text text-anchor="middle" x="2156" y="-807.5" font-family="sans" font-size="10.00">samtools_sort</text>
</g>
<!-- 86&#45;&gt;83 -->
<g id="edge117" class="edge"><title>86&#45;&gt;83</title>
<path fill="none" stroke="grey" stroke-width="2" d="M2112.82,-801.309C2047.13,-789.609 1921.17,-767.172 1839.68,-752.657"/>
<polygon fill="grey" stroke="grey" points="1839.93,-749.148 1829.47,-750.84 1838.7,-756.039 1839.93,-749.148"/>
</g>
<!-- 87&#45;&gt;85 -->
<g id="edge119" class="edge"><title>87&#45;&gt;85</title>
<path fill="none" stroke="grey" stroke-width="2" d="M2269,-863.697C2269,-855.983 2269,-846.712 2269,-838.112"/>
<polygon fill="grey" stroke="grey" points="2272.5,-838.104 2269,-828.104 2265.5,-838.104 2272.5,-838.104"/>
</g>
<!-- 88&#45;&gt;86 -->
<g id="edge120" class="edge"><title>88&#45;&gt;86</title>
<path fill="none" stroke="grey" stroke-width="2" d="M2162.78,-863.697C2161.78,-855.983 2160.59,-846.712 2159.49,-838.112"/>
<polygon fill="grey" stroke="grey" points="2162.95,-837.576 2158.2,-828.104 2156,-838.469 2162.95,-837.576"/>
</g>
<!-- 89 -->
<g id="node90" class="node"><title>89</title>
<path fill="none" stroke="#5682d8" stroke-width="2" d="M2187.25,-972C2187.25,-972 2142.75,-972 2142.75,-972 2136.75,-972 2130.75,-966 2130.75,-960 2130.75,-960 2130.75,-948 2130.75,-948 2130.75,-942 2136.75,-936 2142.75,-936 2142.75,-936 2187.25,-936 2187.25,-936 2193.25,-936 2199.25,-942 2199.25,-948 2199.25,-948 2199.25,-960 2199.25,-960 2199.25,-966 2193.25,-972 2187.25,-972"/>
<text text-anchor="middle" x="2165" y="-951.5" font-family="sans" font-size="10.00">bwa_index</text>
</g>
<!-- 89&#45;&gt;87 -->
<g id="edge121" class="edge"><title>89&#45;&gt;87</title>
<path fill="none" stroke="grey" stroke-width="2" d="M2190.44,-935.876C2203.79,-926.893 2220.32,-915.763 2234.78,-906.034"/>
<polygon fill="grey" stroke="grey" points="2237.12,-908.677 2243.46,-900.19 2233.21,-902.87 2237.12,-908.677"/>
</g>
<!-- 89&#45;&gt;88 -->
<g id="edge123" class="edge"><title>89&#45;&gt;88</title>
<path fill="none" stroke="grey" stroke-width="2" d="M2165,-935.697C2165,-927.983 2165,-918.712 2165,-910.112"/>
<polygon fill="grey" stroke="grey" points="2168.5,-910.104 2165,-900.104 2161.5,-910.104 2168.5,-910.104"/>
</g>
</g>
</svg>
